<mxfile host="app.diagrams.net" modified="2023-06-07T13:05:55.647Z" agent="Mozilla/5.0 (Windows NT 10.0; Win64; x64) AppleWebKit/537.36 (KHTML, like Gecko) Chrome/114.0.0.0 Safari/537.36" etag="5o5ppc_pXSIGpn7QMqBE" version="21.3.7" type="github" pages="4">
  <diagram id="Gjh91Je4ySEMAI1Sj-sg" name="Page-1">
    <mxGraphModel dx="4350" dy="1743" grid="1" gridSize="10" guides="1" tooltips="1" connect="1" arrows="1" fold="1" page="1" pageScale="1" pageWidth="850" pageHeight="1100" math="0" shadow="0">
      <root>
        <mxCell id="0" />
        <mxCell id="1" parent="0" />
        <mxCell id="m6qgLcc2T48I289HVZYg-2" value="Sponsor" style="rounded=0;whiteSpace=wrap;html=1;fontFamily=Helvetica;fontSize=11;fontColor=default;" parent="1" vertex="1">
          <mxGeometry x="1430" y="90.5" width="120" height="60" as="geometry" />
        </mxCell>
        <mxCell id="m6qgLcc2T48I289HVZYg-4" style="edgeStyle=none;shape=connector;rounded=0;orthogonalLoop=1;jettySize=auto;html=1;labelBackgroundColor=default;strokeColor=default;fontFamily=Helvetica;fontSize=11;fontColor=default;endArrow=none;" parent="1" source="m6qgLcc2T48I289HVZYg-3" target="m6qgLcc2T48I289HVZYg-2" edge="1">
          <mxGeometry relative="1" as="geometry" />
        </mxCell>
        <mxCell id="m6qgLcc2T48I289HVZYg-6" value="n" style="edgeLabel;html=1;align=center;verticalAlign=middle;resizable=0;points=[];fontSize=11;fontFamily=Helvetica;fontColor=default;" parent="m6qgLcc2T48I289HVZYg-4" vertex="1" connectable="0">
          <mxGeometry x="0.2632" y="-1" relative="1" as="geometry">
            <mxPoint x="-5" y="-4" as="offset" />
          </mxGeometry>
        </mxCell>
        <mxCell id="1vJ2a3ICqRxrZBc96WOV-16" value="" style="group" vertex="1" connectable="0" parent="1">
          <mxGeometry x="-770" y="281.75" width="380" height="200" as="geometry" />
        </mxCell>
        <mxCell id="DnQ4--VGCIlJsh_Cb7lD-6" value="related &amp;nbsp;Information&lt;br/&gt;of member&amp;nbsp;" style="rounded=0;whiteSpace=wrap;html=1;" parent="1vJ2a3ICqRxrZBc96WOV-16" vertex="1">
          <mxGeometry x="130" width="120" height="60" as="geometry" />
        </mxCell>
        <mxCell id="DnQ4--VGCIlJsh_Cb7lD-115" value="research equipmentâ€™s Informatio" style="ellipse;whiteSpace=wrap;html=1;" parent="1vJ2a3ICqRxrZBc96WOV-16" vertex="1">
          <mxGeometry x="260" y="120" width="120" height="80" as="geometry" />
        </mxCell>
        <mxCell id="DnQ4--VGCIlJsh_Cb7lD-116" value="&amp;nbsp;total wages," style="ellipse;whiteSpace=wrap;html=1;" parent="1vJ2a3ICqRxrZBc96WOV-16" vertex="1">
          <mxGeometry y="120" width="120" height="80" as="geometry" />
        </mxCell>
        <mxCell id="DnQ4--VGCIlJsh_Cb7lD-117" value="Case payments" style="ellipse;whiteSpace=wrap;html=1;" parent="1vJ2a3ICqRxrZBc96WOV-16" vertex="1">
          <mxGeometry x="125" y="120" width="120" height="80" as="geometry" />
        </mxCell>
        <mxCell id="DnQ4--VGCIlJsh_Cb7lD-118" value="" style="endArrow=none;html=1;rounded=0;" parent="1vJ2a3ICqRxrZBc96WOV-16" source="DnQ4--VGCIlJsh_Cb7lD-115" target="DnQ4--VGCIlJsh_Cb7lD-6" edge="1">
          <mxGeometry width="50" height="50" relative="1" as="geometry">
            <mxPoint x="235" y="110" as="sourcePoint" />
            <mxPoint x="185" y="60" as="targetPoint" />
          </mxGeometry>
        </mxCell>
        <mxCell id="DnQ4--VGCIlJsh_Cb7lD-119" value="" style="endArrow=none;html=1;rounded=0;" parent="1vJ2a3ICqRxrZBc96WOV-16" source="DnQ4--VGCIlJsh_Cb7lD-117" target="DnQ4--VGCIlJsh_Cb7lD-6" edge="1">
          <mxGeometry width="50" height="50" relative="1" as="geometry">
            <mxPoint x="345" y="130" as="sourcePoint" />
            <mxPoint x="200" y="70" as="targetPoint" />
          </mxGeometry>
        </mxCell>
        <mxCell id="DnQ4--VGCIlJsh_Cb7lD-120" value="" style="endArrow=none;html=1;rounded=0;" parent="1vJ2a3ICqRxrZBc96WOV-16" source="DnQ4--VGCIlJsh_Cb7lD-116" target="DnQ4--VGCIlJsh_Cb7lD-6" edge="1">
          <mxGeometry width="50" height="50" relative="1" as="geometry">
            <mxPoint x="355" y="140" as="sourcePoint" />
            <mxPoint x="210" y="80" as="targetPoint" />
          </mxGeometry>
        </mxCell>
        <mxCell id="1vJ2a3ICqRxrZBc96WOV-19" value="" style="rhombus;whiteSpace=wrap;html=1;" vertex="1" parent="1">
          <mxGeometry x="-320" y="163" width="150" height="80" as="geometry" />
        </mxCell>
        <mxCell id="1vJ2a3ICqRxrZBc96WOV-20" value="" style="endArrow=none;html=1;rounded=0;" edge="1" parent="1" source="4cyTBoL2mbChuSqTaiiy-8" target="1vJ2a3ICqRxrZBc96WOV-19">
          <mxGeometry width="50" height="50" relative="1" as="geometry">
            <mxPoint x="210" y="953" as="sourcePoint" />
            <mxPoint x="408.3679525222551" y="260.53709198813067" as="targetPoint" />
          </mxGeometry>
        </mxCell>
        <mxCell id="1vJ2a3ICqRxrZBc96WOV-21" value="" style="endArrow=none;html=1;rounded=0;" edge="1" parent="1" source="DnQ4--VGCIlJsh_Cb7lD-6" target="1vJ2a3ICqRxrZBc96WOV-19">
          <mxGeometry width="50" height="50" relative="1" as="geometry">
            <mxPoint x="75" y="805" as="sourcePoint" />
            <mxPoint x="315" y="771" as="targetPoint" />
          </mxGeometry>
        </mxCell>
        <mxCell id="1vJ2a3ICqRxrZBc96WOV-23" value="" style="rhombus;whiteSpace=wrap;html=1;" vertex="1" parent="1">
          <mxGeometry x="500" y="193" width="140" height="80" as="geometry" />
        </mxCell>
        <mxCell id="1vJ2a3ICqRxrZBc96WOV-24" value="" style="endArrow=none;html=1;rounded=0;" edge="1" parent="1" source="1vJ2a3ICqRxrZBc96WOV-23" target="DnQ4--VGCIlJsh_Cb7lD-41">
          <mxGeometry width="50" height="50" relative="1" as="geometry">
            <mxPoint x="1095" y="775" as="sourcePoint" />
            <mxPoint x="1335" y="741" as="targetPoint" />
          </mxGeometry>
        </mxCell>
        <mxCell id="1vJ2a3ICqRxrZBc96WOV-25" value="" style="endArrow=none;html=1;rounded=0;" edge="1" parent="1" source="1vJ2a3ICqRxrZBc96WOV-23" target="4cyTBoL2mbChuSqTaiiy-8">
          <mxGeometry width="50" height="50" relative="1" as="geometry">
            <mxPoint x="1105" y="785" as="sourcePoint" />
            <mxPoint x="1345" y="751" as="targetPoint" />
          </mxGeometry>
        </mxCell>
        <mxCell id="4cyTBoL2mbChuSqTaiiy-8" value="researcher" style="rounded=0;whiteSpace=wrap;html=1;" parent="1" vertex="1">
          <mxGeometry x="110" y="173" width="120" height="60" as="geometry" />
        </mxCell>
        <mxCell id="4cyTBoL2mbChuSqTaiiy-9" value="Role" style="ellipse;whiteSpace=wrap;html=1;" parent="1" vertex="1">
          <mxGeometry x="70" y="303" width="100" height="60" as="geometry" />
        </mxCell>
        <mxCell id="4cyTBoL2mbChuSqTaiiy-11" value="duties" style="ellipse;whiteSpace=wrap;html=1;" parent="1" vertex="1">
          <mxGeometry x="180" y="303" width="100" height="60" as="geometry" />
        </mxCell>
        <mxCell id="4cyTBoL2mbChuSqTaiiy-24" value="" style="endArrow=none;html=1;rounded=0;" parent="1" source="4cyTBoL2mbChuSqTaiiy-9" target="4cyTBoL2mbChuSqTaiiy-8" edge="1">
          <mxGeometry width="50" height="50" relative="1" as="geometry">
            <mxPoint x="35" y="283" as="sourcePoint" />
            <mxPoint x="205" y="153" as="targetPoint" />
          </mxGeometry>
        </mxCell>
        <mxCell id="4cyTBoL2mbChuSqTaiiy-25" value="" style="endArrow=none;html=1;rounded=0;" parent="1" source="4cyTBoL2mbChuSqTaiiy-11" target="4cyTBoL2mbChuSqTaiiy-8" edge="1">
          <mxGeometry width="50" height="50" relative="1" as="geometry">
            <mxPoint x="265" y="303" as="sourcePoint" />
            <mxPoint x="315" y="253" as="targetPoint" />
          </mxGeometry>
        </mxCell>
        <mxCell id="4cyTBoL2mbChuSqTaiiy-26" value="Agreement" style="ellipse;whiteSpace=wrap;html=1;" parent="1" vertex="1">
          <mxGeometry x="-35" y="133" width="95" height="60" as="geometry" />
        </mxCell>
        <mxCell id="4cyTBoL2mbChuSqTaiiy-27" value="" style="endArrow=none;html=1;rounded=0;" parent="1" source="4cyTBoL2mbChuSqTaiiy-26" target="4cyTBoL2mbChuSqTaiiy-8" edge="1">
          <mxGeometry width="50" height="50" relative="1" as="geometry">
            <mxPoint x="45" y="193" as="sourcePoint" />
            <mxPoint x="95" y="143" as="targetPoint" />
          </mxGeometry>
        </mxCell>
        <mxCell id="4cyTBoL2mbChuSqTaiiy-28" value="&amp;nbsp;&lt;span style=&quot;font-size:11.0pt;&lt;br/&gt;line-height:107%;font-family:&amp;quot;Calibri&amp;quot;,sans-serif;mso-ascii-theme-font:minor-latin;&lt;br/&gt;mso-fareast-font-family:Calibri;mso-fareast-theme-font:minor-latin;mso-hansi-theme-font:&lt;br/&gt;minor-latin;mso-bidi-font-family:&amp;quot;2  Nazanin&amp;quot;;mso-ansi-language:EN-US;&lt;br/&gt;mso-fareast-language:EN-US;mso-bidi-language:AR-SA&quot;&gt;Favorite research field&lt;/span&gt;" style="ellipse;whiteSpace=wrap;html=1;" parent="1" vertex="1">
          <mxGeometry x="-40" y="53" width="100" height="60" as="geometry" />
        </mxCell>
        <mxCell id="1vJ2a3ICqRxrZBc96WOV-1" value="Educational records" style="ellipse;whiteSpace=wrap;html=1;" vertex="1" parent="1">
          <mxGeometry x="80" y="53" width="100" height="60" as="geometry" />
        </mxCell>
        <mxCell id="1vJ2a3ICqRxrZBc96WOV-2" value="Research or academic records" style="ellipse;whiteSpace=wrap;html=1;" vertex="1" parent="1">
          <mxGeometry x="190" y="53" width="100" height="60" as="geometry" />
        </mxCell>
        <mxCell id="1vJ2a3ICqRxrZBc96WOV-3" value="" style="endArrow=none;html=1;rounded=0;" edge="1" parent="1" source="4cyTBoL2mbChuSqTaiiy-8" target="1vJ2a3ICqRxrZBc96WOV-2">
          <mxGeometry width="50" height="50" relative="1" as="geometry">
            <mxPoint x="171" y="294" as="sourcePoint" />
            <mxPoint x="194" y="233" as="targetPoint" />
          </mxGeometry>
        </mxCell>
        <mxCell id="1vJ2a3ICqRxrZBc96WOV-4" value="" style="endArrow=none;html=1;rounded=0;" edge="1" parent="1" source="4cyTBoL2mbChuSqTaiiy-8" target="4cyTBoL2mbChuSqTaiiy-28">
          <mxGeometry width="50" height="50" relative="1" as="geometry">
            <mxPoint x="181" y="304" as="sourcePoint" />
            <mxPoint x="204" y="243" as="targetPoint" />
          </mxGeometry>
        </mxCell>
        <mxCell id="1vJ2a3ICqRxrZBc96WOV-5" value="" style="endArrow=none;html=1;rounded=0;" edge="1" parent="1" source="4cyTBoL2mbChuSqTaiiy-8" target="1vJ2a3ICqRxrZBc96WOV-1">
          <mxGeometry width="50" height="50" relative="1" as="geometry">
            <mxPoint x="225" y="263" as="sourcePoint" />
            <mxPoint x="214" y="253" as="targetPoint" />
          </mxGeometry>
        </mxCell>
        <mxCell id="1vJ2a3ICqRxrZBc96WOV-9" value="Beginning" style="ellipse;whiteSpace=wrap;html=1;" vertex="1" parent="1">
          <mxGeometry x="320" y="233" width="100" height="60" as="geometry" />
        </mxCell>
        <mxCell id="1vJ2a3ICqRxrZBc96WOV-10" value="total wages," style="ellipse;whiteSpace=wrap;html=1;" vertex="1" parent="1">
          <mxGeometry x="320" y="303" width="100" height="60" as="geometry" />
        </mxCell>
        <mxCell id="1vJ2a3ICqRxrZBc96WOV-11" value="End" style="ellipse;whiteSpace=wrap;html=1;" vertex="1" parent="1">
          <mxGeometry x="320" y="63" width="100" height="60" as="geometry" />
        </mxCell>
        <mxCell id="1vJ2a3ICqRxrZBc96WOV-12" value="" style="endArrow=none;html=1;rounded=0;" edge="1" parent="1" source="4cyTBoL2mbChuSqTaiiy-8" target="1vJ2a3ICqRxrZBc96WOV-10">
          <mxGeometry width="50" height="50" relative="1" as="geometry">
            <mxPoint x="215" y="313" as="sourcePoint" />
            <mxPoint x="365" y="411" as="targetPoint" />
          </mxGeometry>
        </mxCell>
        <mxCell id="1vJ2a3ICqRxrZBc96WOV-13" value="" style="endArrow=none;html=1;rounded=0;" edge="1" parent="1" source="1vJ2a3ICqRxrZBc96WOV-11" target="4cyTBoL2mbChuSqTaiiy-8">
          <mxGeometry width="50" height="50" relative="1" as="geometry">
            <mxPoint x="310.14727572491165" y="195.3008949665425" as="sourcePoint" />
            <mxPoint x="350" y="441" as="targetPoint" />
          </mxGeometry>
        </mxCell>
        <mxCell id="1vJ2a3ICqRxrZBc96WOV-14" value="" style="endArrow=none;html=1;rounded=0;" edge="1" parent="1" source="4cyTBoL2mbChuSqTaiiy-8" target="1vJ2a3ICqRxrZBc96WOV-9">
          <mxGeometry width="50" height="50" relative="1" as="geometry">
            <mxPoint x="271" y="253" as="sourcePoint" />
            <mxPoint x="421" y="351" as="targetPoint" />
          </mxGeometry>
        </mxCell>
        <mxCell id="1vJ2a3ICqRxrZBc96WOV-26" value="" style="group" vertex="1" connectable="0" parent="1">
          <mxGeometry x="35" y="760" width="535" height="290" as="geometry" />
        </mxCell>
        <mxCell id="DnQ4--VGCIlJsh_Cb7lD-56" value="conference papers" style="rounded=0;whiteSpace=wrap;html=1;" parent="1vJ2a3ICqRxrZBc96WOV-26" vertex="1">
          <mxGeometry x="205" width="120" height="60" as="geometry" />
        </mxCell>
        <mxCell id="DnQ4--VGCIlJsh_Cb7lD-57" value="&lt;span style=&quot;font-size:11.0pt;&lt;br/&gt;line-height:107%;font-family:&amp;quot;Calibri&amp;quot;,sans-serif;mso-ascii-theme-font:minor-latin;&lt;br/&gt;mso-fareast-font-family:Calibri;mso-fareast-theme-font:minor-latin;mso-hansi-theme-font:&lt;br/&gt;minor-latin;mso-bidi-font-family:&amp;quot;2  Nazanin&amp;quot;;mso-ansi-language:EN-US;&lt;br/&gt;mso-fareast-language:EN-US;mso-bidi-language:AR-SA&quot;&gt;\page numbers&lt;/span&gt;" style="ellipse;whiteSpace=wrap;html=1;" parent="1vJ2a3ICqRxrZBc96WOV-26" vertex="1">
          <mxGeometry y="210" width="120" height="80" as="geometry" />
        </mxCell>
        <mxCell id="DnQ4--VGCIlJsh_Cb7lD-58" value="" style="endArrow=none;html=1;rounded=0;entryX=0.5;entryY=1;entryDx=0;entryDy=0;" parent="1vJ2a3ICqRxrZBc96WOV-26" source="DnQ4--VGCIlJsh_Cb7lD-57" target="DnQ4--VGCIlJsh_Cb7lD-56" edge="1">
          <mxGeometry width="50" height="50" relative="1" as="geometry">
            <mxPoint x="5" y="80" as="sourcePoint" />
            <mxPoint x="55" y="30" as="targetPoint" />
          </mxGeometry>
        </mxCell>
        <mxCell id="DnQ4--VGCIlJsh_Cb7lD-59" value="Academic" style="ellipse;whiteSpace=wrap;html=1;" parent="1vJ2a3ICqRxrZBc96WOV-26" vertex="1">
          <mxGeometry x="415" y="30" width="120" height="80" as="geometry" />
        </mxCell>
        <mxCell id="DnQ4--VGCIlJsh_Cb7lD-60" value="" style="endArrow=none;html=1;rounded=0;entryX=0.5;entryY=1;entryDx=0;entryDy=0;" parent="1vJ2a3ICqRxrZBc96WOV-26" source="DnQ4--VGCIlJsh_Cb7lD-59" target="DnQ4--VGCIlJsh_Cb7lD-56" edge="1">
          <mxGeometry width="50" height="50" relative="1" as="geometry">
            <mxPoint x="145" y="80" as="sourcePoint" />
            <mxPoint x="405" y="50" as="targetPoint" />
          </mxGeometry>
        </mxCell>
        <mxCell id="DnQ4--VGCIlJsh_Cb7lD-61" value="executive" style="ellipse;whiteSpace=wrap;html=1;" parent="1vJ2a3ICqRxrZBc96WOV-26" vertex="1">
          <mxGeometry x="415" y="120" width="120" height="80" as="geometry" />
        </mxCell>
        <mxCell id="DnQ4--VGCIlJsh_Cb7lD-62" value="" style="endArrow=none;html=1;rounded=0;entryX=0.5;entryY=1;entryDx=0;entryDy=0;" parent="1vJ2a3ICqRxrZBc96WOV-26" source="DnQ4--VGCIlJsh_Cb7lD-61" target="DnQ4--VGCIlJsh_Cb7lD-56" edge="1">
          <mxGeometry width="50" height="50" relative="1" as="geometry">
            <mxPoint x="25" y="100" as="sourcePoint" />
            <mxPoint x="285" y="70" as="targetPoint" />
            <Array as="points">
              <mxPoint x="325" y="90" />
            </Array>
          </mxGeometry>
        </mxCell>
        <mxCell id="DnQ4--VGCIlJsh_Cb7lD-63" value="Date of admission" style="ellipse;whiteSpace=wrap;html=1;" parent="1vJ2a3ICqRxrZBc96WOV-26" vertex="1">
          <mxGeometry y="120" width="120" height="80" as="geometry" />
        </mxCell>
        <mxCell id="DnQ4--VGCIlJsh_Cb7lD-64" value="" style="endArrow=none;html=1;rounded=0;entryX=0.5;entryY=1;entryDx=0;entryDy=0;" parent="1vJ2a3ICqRxrZBc96WOV-26" source="DnQ4--VGCIlJsh_Cb7lD-63" target="DnQ4--VGCIlJsh_Cb7lD-56" edge="1">
          <mxGeometry width="50" height="50" relative="1" as="geometry">
            <mxPoint x="35" y="110" as="sourcePoint" />
            <mxPoint x="295" y="80" as="targetPoint" />
            <Array as="points">
              <mxPoint x="195" y="90" />
            </Array>
          </mxGeometry>
        </mxCell>
        <mxCell id="DnQ4--VGCIlJsh_Cb7lD-65" value="&lt;span style=&quot;font-size:11.0pt;&lt;br/&gt;line-height:107%;font-family:&amp;quot;Calibri&amp;quot;,sans-serif;mso-ascii-theme-font:minor-latin;&lt;br/&gt;mso-fareast-font-family:Calibri;mso-fareast-theme-font:minor-latin;mso-hansi-theme-font:&lt;br/&gt;minor-latin;mso-bidi-font-family:&amp;quot;2  Nazanin&amp;quot;;mso-ansi-language:EN-US;&lt;br/&gt;mso-fareast-language:EN-US;mso-bidi-language:AR-SA&quot;&gt;shipping time&lt;/span&gt;" style="ellipse;whiteSpace=wrap;html=1;" parent="1vJ2a3ICqRxrZBc96WOV-26" vertex="1">
          <mxGeometry y="30" width="120" height="80" as="geometry" />
        </mxCell>
        <mxCell id="DnQ4--VGCIlJsh_Cb7lD-66" value="" style="endArrow=none;html=1;rounded=0;entryX=0.5;entryY=1;entryDx=0;entryDy=0;" parent="1vJ2a3ICqRxrZBc96WOV-26" source="DnQ4--VGCIlJsh_Cb7lD-65" target="DnQ4--VGCIlJsh_Cb7lD-56" edge="1">
          <mxGeometry width="50" height="50" relative="1" as="geometry">
            <mxPoint x="-140" y="80" as="sourcePoint" />
            <mxPoint x="120" y="50" as="targetPoint" />
          </mxGeometry>
        </mxCell>
        <mxCell id="DnQ4--VGCIlJsh_Cb7lD-67" value="Reviewers" style="ellipse;whiteSpace=wrap;html=1;" parent="1vJ2a3ICqRxrZBc96WOV-26" vertex="1">
          <mxGeometry x="415" y="210" width="120" height="80" as="geometry" />
        </mxCell>
        <mxCell id="DnQ4--VGCIlJsh_Cb7lD-68" value="" style="endArrow=none;html=1;rounded=0;entryX=0.5;entryY=1;entryDx=0;entryDy=0;" parent="1vJ2a3ICqRxrZBc96WOV-26" source="DnQ4--VGCIlJsh_Cb7lD-67" target="DnQ4--VGCIlJsh_Cb7lD-56" edge="1">
          <mxGeometry width="50" height="50" relative="1" as="geometry">
            <mxPoint x="55" y="130" as="sourcePoint" />
            <mxPoint x="265" y="110" as="targetPoint" />
          </mxGeometry>
        </mxCell>
        <mxCell id="DnQ4--VGCIlJsh_Cb7lD-69" value="sponsors" style="ellipse;whiteSpace=wrap;html=1;" parent="1vJ2a3ICqRxrZBc96WOV-26" vertex="1">
          <mxGeometry x="275" y="210" width="120" height="80" as="geometry" />
        </mxCell>
        <mxCell id="DnQ4--VGCIlJsh_Cb7lD-70" value="" style="endArrow=none;html=1;rounded=0;entryX=0.5;entryY=1;entryDx=0;entryDy=0;" parent="1vJ2a3ICqRxrZBc96WOV-26" source="DnQ4--VGCIlJsh_Cb7lD-69" target="DnQ4--VGCIlJsh_Cb7lD-56" edge="1">
          <mxGeometry width="50" height="50" relative="1" as="geometry">
            <mxPoint x="65" y="140" as="sourcePoint" />
            <mxPoint x="325" y="110" as="targetPoint" />
          </mxGeometry>
        </mxCell>
        <mxCell id="DnQ4--VGCIlJsh_Cb7lD-71" value="budget" style="ellipse;whiteSpace=wrap;html=1;" parent="1vJ2a3ICqRxrZBc96WOV-26" vertex="1">
          <mxGeometry x="140" y="210" width="120" height="80" as="geometry" />
        </mxCell>
        <mxCell id="DnQ4--VGCIlJsh_Cb7lD-72" value="" style="endArrow=none;html=1;rounded=0;entryX=0.5;entryY=1;entryDx=0;entryDy=0;" parent="1vJ2a3ICqRxrZBc96WOV-26" source="DnQ4--VGCIlJsh_Cb7lD-71" target="DnQ4--VGCIlJsh_Cb7lD-56" edge="1">
          <mxGeometry width="50" height="50" relative="1" as="geometry">
            <mxPoint x="-45" y="180" as="sourcePoint" />
            <mxPoint x="215" y="150" as="targetPoint" />
          </mxGeometry>
        </mxCell>
        <mxCell id="1vJ2a3ICqRxrZBc96WOV-27" value="" style="group" vertex="1" connectable="0" parent="1">
          <mxGeometry x="588.75" y="660" width="535" height="380" as="geometry" />
        </mxCell>
        <mxCell id="DnQ4--VGCIlJsh_Cb7lD-94" value="internal papers&amp;nbsp;" style="rounded=0;whiteSpace=wrap;html=1;" parent="1vJ2a3ICqRxrZBc96WOV-27" vertex="1">
          <mxGeometry x="205" width="120" height="60" as="geometry" />
        </mxCell>
        <mxCell id="DnQ4--VGCIlJsh_Cb7lD-95" value="&lt;span style=&quot;font-size:11.0pt;&lt;br/&gt;line-height:107%;font-family:&amp;quot;Calibri&amp;quot;,sans-serif;mso-ascii-theme-font:minor-latin;&lt;br/&gt;mso-fareast-font-family:Calibri;mso-fareast-theme-font:minor-latin;mso-hansi-theme-font:&lt;br/&gt;minor-latin;mso-bidi-font-family:&amp;quot;2  Nazanin&amp;quot;;mso-ansi-language:EN-US;&lt;br/&gt;mso-fareast-language:EN-US;mso-bidi-language:AR-SA&quot;&gt;page numbers&lt;/span&gt;" style="ellipse;whiteSpace=wrap;html=1;" parent="1vJ2a3ICqRxrZBc96WOV-27" vertex="1">
          <mxGeometry y="210" width="120" height="80" as="geometry" />
        </mxCell>
        <mxCell id="DnQ4--VGCIlJsh_Cb7lD-96" value="" style="endArrow=none;html=1;rounded=0;entryX=0.5;entryY=1;entryDx=0;entryDy=0;" parent="1vJ2a3ICqRxrZBc96WOV-27" source="DnQ4--VGCIlJsh_Cb7lD-95" target="DnQ4--VGCIlJsh_Cb7lD-94" edge="1">
          <mxGeometry width="50" height="50" relative="1" as="geometry">
            <mxPoint x="5" y="80" as="sourcePoint" />
            <mxPoint x="55" y="30" as="targetPoint" />
          </mxGeometry>
        </mxCell>
        <mxCell id="DnQ4--VGCIlJsh_Cb7lD-97" value="Academic" style="ellipse;whiteSpace=wrap;html=1;" parent="1vJ2a3ICqRxrZBc96WOV-27" vertex="1">
          <mxGeometry x="415" y="30" width="120" height="80" as="geometry" />
        </mxCell>
        <mxCell id="DnQ4--VGCIlJsh_Cb7lD-98" value="" style="endArrow=none;html=1;rounded=0;entryX=0.5;entryY=1;entryDx=0;entryDy=0;" parent="1vJ2a3ICqRxrZBc96WOV-27" source="DnQ4--VGCIlJsh_Cb7lD-97" target="DnQ4--VGCIlJsh_Cb7lD-94" edge="1">
          <mxGeometry width="50" height="50" relative="1" as="geometry">
            <mxPoint x="145" y="80" as="sourcePoint" />
            <mxPoint x="405" y="50" as="targetPoint" />
          </mxGeometry>
        </mxCell>
        <mxCell id="DnQ4--VGCIlJsh_Cb7lD-99" value="executive" style="ellipse;whiteSpace=wrap;html=1;" parent="1vJ2a3ICqRxrZBc96WOV-27" vertex="1">
          <mxGeometry x="415" y="120" width="120" height="80" as="geometry" />
        </mxCell>
        <mxCell id="DnQ4--VGCIlJsh_Cb7lD-100" value="" style="endArrow=none;html=1;rounded=0;entryX=0.5;entryY=1;entryDx=0;entryDy=0;" parent="1vJ2a3ICqRxrZBc96WOV-27" source="DnQ4--VGCIlJsh_Cb7lD-99" target="DnQ4--VGCIlJsh_Cb7lD-94" edge="1">
          <mxGeometry width="50" height="50" relative="1" as="geometry">
            <mxPoint x="25" y="100" as="sourcePoint" />
            <mxPoint x="285" y="70" as="targetPoint" />
            <Array as="points">
              <mxPoint x="325" y="90" />
            </Array>
          </mxGeometry>
        </mxCell>
        <mxCell id="DnQ4--VGCIlJsh_Cb7lD-101" value="Date of admission" style="ellipse;whiteSpace=wrap;html=1;" parent="1vJ2a3ICqRxrZBc96WOV-27" vertex="1">
          <mxGeometry y="120" width="120" height="80" as="geometry" />
        </mxCell>
        <mxCell id="DnQ4--VGCIlJsh_Cb7lD-102" value="" style="endArrow=none;html=1;rounded=0;entryX=0.5;entryY=1;entryDx=0;entryDy=0;" parent="1vJ2a3ICqRxrZBc96WOV-27" source="DnQ4--VGCIlJsh_Cb7lD-101" target="DnQ4--VGCIlJsh_Cb7lD-94" edge="1">
          <mxGeometry width="50" height="50" relative="1" as="geometry">
            <mxPoint x="35" y="110" as="sourcePoint" />
            <mxPoint x="295" y="80" as="targetPoint" />
            <Array as="points">
              <mxPoint x="195" y="90" />
            </Array>
          </mxGeometry>
        </mxCell>
        <mxCell id="DnQ4--VGCIlJsh_Cb7lD-103" value="&lt;span style=&quot;font-size:11.0pt;&lt;br/&gt;line-height:107%;font-family:&amp;quot;Calibri&amp;quot;,sans-serif;mso-ascii-theme-font:minor-latin;&lt;br/&gt;mso-fareast-font-family:Calibri;mso-fareast-theme-font:minor-latin;mso-hansi-theme-font:&lt;br/&gt;minor-latin;mso-bidi-font-family:&amp;quot;2  Nazanin&amp;quot;;mso-ansi-language:EN-US;&lt;br/&gt;mso-fareast-language:EN-US;mso-bidi-language:AR-SA&quot;&gt;shipping time&lt;/span&gt;" style="ellipse;whiteSpace=wrap;html=1;" parent="1vJ2a3ICqRxrZBc96WOV-27" vertex="1">
          <mxGeometry y="30" width="120" height="80" as="geometry" />
        </mxCell>
        <mxCell id="DnQ4--VGCIlJsh_Cb7lD-104" value="" style="endArrow=none;html=1;rounded=0;entryX=0.5;entryY=1;entryDx=0;entryDy=0;" parent="1vJ2a3ICqRxrZBc96WOV-27" source="DnQ4--VGCIlJsh_Cb7lD-103" target="DnQ4--VGCIlJsh_Cb7lD-94" edge="1">
          <mxGeometry width="50" height="50" relative="1" as="geometry">
            <mxPoint x="-140" y="80" as="sourcePoint" />
            <mxPoint x="120" y="50" as="targetPoint" />
          </mxGeometry>
        </mxCell>
        <mxCell id="DnQ4--VGCIlJsh_Cb7lD-105" value="Reviewers" style="ellipse;whiteSpace=wrap;html=1;" parent="1vJ2a3ICqRxrZBc96WOV-27" vertex="1">
          <mxGeometry x="415" y="210" width="120" height="80" as="geometry" />
        </mxCell>
        <mxCell id="DnQ4--VGCIlJsh_Cb7lD-106" value="" style="endArrow=none;html=1;rounded=0;entryX=0.5;entryY=1;entryDx=0;entryDy=0;" parent="1vJ2a3ICqRxrZBc96WOV-27" source="DnQ4--VGCIlJsh_Cb7lD-105" target="DnQ4--VGCIlJsh_Cb7lD-94" edge="1">
          <mxGeometry width="50" height="50" relative="1" as="geometry">
            <mxPoint x="55" y="130" as="sourcePoint" />
            <mxPoint x="265" y="110" as="targetPoint" />
          </mxGeometry>
        </mxCell>
        <mxCell id="DnQ4--VGCIlJsh_Cb7lD-107" value="sponsors" style="ellipse;whiteSpace=wrap;html=1;" parent="1vJ2a3ICqRxrZBc96WOV-27" vertex="1">
          <mxGeometry x="415" y="300" width="120" height="80" as="geometry" />
        </mxCell>
        <mxCell id="DnQ4--VGCIlJsh_Cb7lD-108" value="" style="endArrow=none;html=1;rounded=0;entryX=0.5;entryY=1;entryDx=0;entryDy=0;exitX=0;exitY=0;exitDx=0;exitDy=0;" parent="1vJ2a3ICqRxrZBc96WOV-27" source="DnQ4--VGCIlJsh_Cb7lD-107" target="DnQ4--VGCIlJsh_Cb7lD-94" edge="1">
          <mxGeometry width="50" height="50" relative="1" as="geometry">
            <mxPoint x="448" y="304" as="sourcePoint" />
            <mxPoint x="325" y="110" as="targetPoint" />
          </mxGeometry>
        </mxCell>
        <mxCell id="DnQ4--VGCIlJsh_Cb7lD-109" value="budget" style="ellipse;whiteSpace=wrap;html=1;" parent="1vJ2a3ICqRxrZBc96WOV-27" vertex="1">
          <mxGeometry y="300" width="120" height="80" as="geometry" />
        </mxCell>
        <mxCell id="DnQ4--VGCIlJsh_Cb7lD-110" value="" style="endArrow=none;html=1;rounded=0;entryX=0.5;entryY=1;entryDx=0;entryDy=0;exitX=1;exitY=0;exitDx=0;exitDy=0;" parent="1vJ2a3ICqRxrZBc96WOV-27" source="DnQ4--VGCIlJsh_Cb7lD-109" target="DnQ4--VGCIlJsh_Cb7lD-94" edge="1">
          <mxGeometry width="50" height="50" relative="1" as="geometry">
            <mxPoint x="-45" y="180" as="sourcePoint" />
            <mxPoint x="215" y="150" as="targetPoint" />
          </mxGeometry>
        </mxCell>
        <mxCell id="DnQ4--VGCIlJsh_Cb7lD-111" value="place" style="ellipse;whiteSpace=wrap;html=1;" parent="1vJ2a3ICqRxrZBc96WOV-27" vertex="1">
          <mxGeometry x="140" y="300" width="120" height="80" as="geometry" />
        </mxCell>
        <mxCell id="DnQ4--VGCIlJsh_Cb7lD-112" value="" style="endArrow=none;html=1;rounded=0;entryX=0.5;entryY=1;entryDx=0;entryDy=0;exitX=0.5;exitY=0;exitDx=0;exitDy=0;" parent="1vJ2a3ICqRxrZBc96WOV-27" source="DnQ4--VGCIlJsh_Cb7lD-111" target="DnQ4--VGCIlJsh_Cb7lD-94" edge="1">
          <mxGeometry width="50" height="50" relative="1" as="geometry">
            <mxPoint x="-35" y="190" as="sourcePoint" />
            <mxPoint x="275" y="70" as="targetPoint" />
          </mxGeometry>
        </mxCell>
        <mxCell id="DnQ4--VGCIlJsh_Cb7lD-113" value="Time" style="ellipse;whiteSpace=wrap;html=1;" parent="1vJ2a3ICqRxrZBc96WOV-27" vertex="1">
          <mxGeometry x="270" y="300" width="120" height="80" as="geometry" />
        </mxCell>
        <mxCell id="DnQ4--VGCIlJsh_Cb7lD-114" value="" style="endArrow=none;html=1;rounded=0;entryX=0.5;entryY=1;entryDx=0;entryDy=0;exitX=0.5;exitY=0;exitDx=0;exitDy=0;" parent="1vJ2a3ICqRxrZBc96WOV-27" source="DnQ4--VGCIlJsh_Cb7lD-113" target="DnQ4--VGCIlJsh_Cb7lD-94" edge="1">
          <mxGeometry width="50" height="50" relative="1" as="geometry">
            <mxPoint x="225" y="180" as="sourcePoint" />
            <mxPoint x="535" y="60" as="targetPoint" />
          </mxGeometry>
        </mxCell>
        <mxCell id="1vJ2a3ICqRxrZBc96WOV-28" value="" style="group" vertex="1" connectable="0" parent="1">
          <mxGeometry x="1147.5" y="650" width="535" height="380" as="geometry" />
        </mxCell>
        <mxCell id="DnQ4--VGCIlJsh_Cb7lD-73" value="workshops" style="rounded=0;whiteSpace=wrap;html=1;" parent="1vJ2a3ICqRxrZBc96WOV-28" vertex="1">
          <mxGeometry x="205" width="120" height="60" as="geometry" />
        </mxCell>
        <mxCell id="DnQ4--VGCIlJsh_Cb7lD-74" value="&lt;span style=&quot;font-size:11.0pt;&lt;br/&gt;line-height:107%;font-family:&amp;quot;Calibri&amp;quot;,sans-serif;mso-ascii-theme-font:minor-latin;&lt;br/&gt;mso-fareast-font-family:Calibri;mso-fareast-theme-font:minor-latin;mso-hansi-theme-font:&lt;br/&gt;minor-latin;mso-bidi-font-family:&amp;quot;2  Nazanin&amp;quot;;mso-ansi-language:EN-US;&lt;br/&gt;mso-fareast-language:EN-US;mso-bidi-language:AR-SA&quot;&gt;page numbers&lt;/span&gt;" style="ellipse;whiteSpace=wrap;html=1;" parent="1vJ2a3ICqRxrZBc96WOV-28" vertex="1">
          <mxGeometry y="210" width="120" height="80" as="geometry" />
        </mxCell>
        <mxCell id="DnQ4--VGCIlJsh_Cb7lD-75" value="" style="endArrow=none;html=1;rounded=0;entryX=0.5;entryY=1;entryDx=0;entryDy=0;" parent="1vJ2a3ICqRxrZBc96WOV-28" source="DnQ4--VGCIlJsh_Cb7lD-74" target="DnQ4--VGCIlJsh_Cb7lD-73" edge="1">
          <mxGeometry width="50" height="50" relative="1" as="geometry">
            <mxPoint x="5" y="80" as="sourcePoint" />
            <mxPoint x="55" y="30" as="targetPoint" />
          </mxGeometry>
        </mxCell>
        <mxCell id="DnQ4--VGCIlJsh_Cb7lD-76" value="Academic" style="ellipse;whiteSpace=wrap;html=1;" parent="1vJ2a3ICqRxrZBc96WOV-28" vertex="1">
          <mxGeometry x="415" y="30" width="120" height="80" as="geometry" />
        </mxCell>
        <mxCell id="DnQ4--VGCIlJsh_Cb7lD-77" value="" style="endArrow=none;html=1;rounded=0;entryX=0.5;entryY=1;entryDx=0;entryDy=0;" parent="1vJ2a3ICqRxrZBc96WOV-28" source="DnQ4--VGCIlJsh_Cb7lD-76" target="DnQ4--VGCIlJsh_Cb7lD-73" edge="1">
          <mxGeometry width="50" height="50" relative="1" as="geometry">
            <mxPoint x="145" y="80" as="sourcePoint" />
            <mxPoint x="405" y="50" as="targetPoint" />
          </mxGeometry>
        </mxCell>
        <mxCell id="DnQ4--VGCIlJsh_Cb7lD-78" value="executive" style="ellipse;whiteSpace=wrap;html=1;" parent="1vJ2a3ICqRxrZBc96WOV-28" vertex="1">
          <mxGeometry x="415" y="120" width="120" height="80" as="geometry" />
        </mxCell>
        <mxCell id="DnQ4--VGCIlJsh_Cb7lD-79" value="" style="endArrow=none;html=1;rounded=0;entryX=0.5;entryY=1;entryDx=0;entryDy=0;" parent="1vJ2a3ICqRxrZBc96WOV-28" source="DnQ4--VGCIlJsh_Cb7lD-78" target="DnQ4--VGCIlJsh_Cb7lD-73" edge="1">
          <mxGeometry width="50" height="50" relative="1" as="geometry">
            <mxPoint x="25" y="100" as="sourcePoint" />
            <mxPoint x="285" y="70" as="targetPoint" />
            <Array as="points">
              <mxPoint x="325" y="90" />
            </Array>
          </mxGeometry>
        </mxCell>
        <mxCell id="DnQ4--VGCIlJsh_Cb7lD-80" value="Date of admission" style="ellipse;whiteSpace=wrap;html=1;" parent="1vJ2a3ICqRxrZBc96WOV-28" vertex="1">
          <mxGeometry y="120" width="120" height="80" as="geometry" />
        </mxCell>
        <mxCell id="DnQ4--VGCIlJsh_Cb7lD-81" value="" style="endArrow=none;html=1;rounded=0;entryX=0.5;entryY=1;entryDx=0;entryDy=0;" parent="1vJ2a3ICqRxrZBc96WOV-28" source="DnQ4--VGCIlJsh_Cb7lD-80" target="DnQ4--VGCIlJsh_Cb7lD-73" edge="1">
          <mxGeometry width="50" height="50" relative="1" as="geometry">
            <mxPoint x="35" y="110" as="sourcePoint" />
            <mxPoint x="295" y="80" as="targetPoint" />
            <Array as="points">
              <mxPoint x="195" y="90" />
            </Array>
          </mxGeometry>
        </mxCell>
        <mxCell id="DnQ4--VGCIlJsh_Cb7lD-82" value="&lt;span style=&quot;font-size:11.0pt;&lt;br/&gt;line-height:107%;font-family:&amp;quot;Calibri&amp;quot;,sans-serif;mso-ascii-theme-font:minor-latin;&lt;br/&gt;mso-fareast-font-family:Calibri;mso-fareast-theme-font:minor-latin;mso-hansi-theme-font:&lt;br/&gt;minor-latin;mso-bidi-font-family:&amp;quot;2  Nazanin&amp;quot;;mso-ansi-language:EN-US;&lt;br/&gt;mso-fareast-language:EN-US;mso-bidi-language:AR-SA&quot;&gt;shipping time&lt;/span&gt;" style="ellipse;whiteSpace=wrap;html=1;" parent="1vJ2a3ICqRxrZBc96WOV-28" vertex="1">
          <mxGeometry y="30" width="120" height="80" as="geometry" />
        </mxCell>
        <mxCell id="DnQ4--VGCIlJsh_Cb7lD-83" value="" style="endArrow=none;html=1;rounded=0;entryX=0.5;entryY=1;entryDx=0;entryDy=0;" parent="1vJ2a3ICqRxrZBc96WOV-28" source="DnQ4--VGCIlJsh_Cb7lD-82" target="DnQ4--VGCIlJsh_Cb7lD-73" edge="1">
          <mxGeometry width="50" height="50" relative="1" as="geometry">
            <mxPoint x="-140" y="80" as="sourcePoint" />
            <mxPoint x="120" y="50" as="targetPoint" />
          </mxGeometry>
        </mxCell>
        <mxCell id="DnQ4--VGCIlJsh_Cb7lD-84" value="Reviewers" style="ellipse;whiteSpace=wrap;html=1;" parent="1vJ2a3ICqRxrZBc96WOV-28" vertex="1">
          <mxGeometry x="415" y="210" width="120" height="80" as="geometry" />
        </mxCell>
        <mxCell id="DnQ4--VGCIlJsh_Cb7lD-85" value="" style="endArrow=none;html=1;rounded=0;entryX=0.5;entryY=1;entryDx=0;entryDy=0;" parent="1vJ2a3ICqRxrZBc96WOV-28" source="DnQ4--VGCIlJsh_Cb7lD-84" target="DnQ4--VGCIlJsh_Cb7lD-73" edge="1">
          <mxGeometry width="50" height="50" relative="1" as="geometry">
            <mxPoint x="55" y="130" as="sourcePoint" />
            <mxPoint x="265" y="110" as="targetPoint" />
          </mxGeometry>
        </mxCell>
        <mxCell id="DnQ4--VGCIlJsh_Cb7lD-86" value="sponsors" style="ellipse;whiteSpace=wrap;html=1;" parent="1vJ2a3ICqRxrZBc96WOV-28" vertex="1">
          <mxGeometry x="415" y="300" width="120" height="80" as="geometry" />
        </mxCell>
        <mxCell id="DnQ4--VGCIlJsh_Cb7lD-87" value="" style="endArrow=none;html=1;rounded=0;entryX=0.5;entryY=1;entryDx=0;entryDy=0;exitX=0;exitY=0;exitDx=0;exitDy=0;" parent="1vJ2a3ICqRxrZBc96WOV-28" source="DnQ4--VGCIlJsh_Cb7lD-86" target="DnQ4--VGCIlJsh_Cb7lD-73" edge="1">
          <mxGeometry width="50" height="50" relative="1" as="geometry">
            <mxPoint x="448" y="304" as="sourcePoint" />
            <mxPoint x="325" y="110" as="targetPoint" />
          </mxGeometry>
        </mxCell>
        <mxCell id="DnQ4--VGCIlJsh_Cb7lD-88" value="budget" style="ellipse;whiteSpace=wrap;html=1;" parent="1vJ2a3ICqRxrZBc96WOV-28" vertex="1">
          <mxGeometry y="300" width="120" height="80" as="geometry" />
        </mxCell>
        <mxCell id="DnQ4--VGCIlJsh_Cb7lD-89" value="" style="endArrow=none;html=1;rounded=0;entryX=0.5;entryY=1;entryDx=0;entryDy=0;exitX=1;exitY=0;exitDx=0;exitDy=0;" parent="1vJ2a3ICqRxrZBc96WOV-28" source="DnQ4--VGCIlJsh_Cb7lD-88" target="DnQ4--VGCIlJsh_Cb7lD-73" edge="1">
          <mxGeometry width="50" height="50" relative="1" as="geometry">
            <mxPoint x="-45" y="180" as="sourcePoint" />
            <mxPoint x="215" y="150" as="targetPoint" />
          </mxGeometry>
        </mxCell>
        <mxCell id="DnQ4--VGCIlJsh_Cb7lD-90" value="place" style="ellipse;whiteSpace=wrap;html=1;" parent="1vJ2a3ICqRxrZBc96WOV-28" vertex="1">
          <mxGeometry x="140" y="300" width="120" height="80" as="geometry" />
        </mxCell>
        <mxCell id="DnQ4--VGCIlJsh_Cb7lD-91" value="" style="endArrow=none;html=1;rounded=0;entryX=0.5;entryY=1;entryDx=0;entryDy=0;exitX=0.5;exitY=0;exitDx=0;exitDy=0;" parent="1vJ2a3ICqRxrZBc96WOV-28" source="DnQ4--VGCIlJsh_Cb7lD-90" target="DnQ4--VGCIlJsh_Cb7lD-73" edge="1">
          <mxGeometry width="50" height="50" relative="1" as="geometry">
            <mxPoint x="-35" y="190" as="sourcePoint" />
            <mxPoint x="275" y="70" as="targetPoint" />
          </mxGeometry>
        </mxCell>
        <mxCell id="DnQ4--VGCIlJsh_Cb7lD-92" value="Time" style="ellipse;whiteSpace=wrap;html=1;" parent="1vJ2a3ICqRxrZBc96WOV-28" vertex="1">
          <mxGeometry x="270" y="300" width="120" height="80" as="geometry" />
        </mxCell>
        <mxCell id="DnQ4--VGCIlJsh_Cb7lD-93" value="" style="endArrow=none;html=1;rounded=0;entryX=0.5;entryY=1;entryDx=0;entryDy=0;exitX=0.5;exitY=0;exitDx=0;exitDy=0;" parent="1vJ2a3ICqRxrZBc96WOV-28" source="DnQ4--VGCIlJsh_Cb7lD-92" target="DnQ4--VGCIlJsh_Cb7lD-73" edge="1">
          <mxGeometry width="50" height="50" relative="1" as="geometry">
            <mxPoint x="225" y="180" as="sourcePoint" />
            <mxPoint x="535" y="60" as="targetPoint" />
          </mxGeometry>
        </mxCell>
        <mxCell id="DnQ4--VGCIlJsh_Cb7lD-18" value="" style="endArrow=none;html=1;rounded=0;exitX=0.5;exitY=0;exitDx=0;exitDy=0;" parent="1" source="DnQ4--VGCIlJsh_Cb7lD-56" target="4cyTBoL2mbChuSqTaiiy-3" edge="1">
          <mxGeometry width="50" height="50" relative="1" as="geometry">
            <mxPoint x="850" y="563" as="sourcePoint" />
            <mxPoint x="1085" y="428" as="targetPoint" />
            <Array as="points" />
          </mxGeometry>
        </mxCell>
        <mxCell id="DnQ4--VGCIlJsh_Cb7lD-41" value="Research activity" style="rounded=0;whiteSpace=wrap;html=1;" parent="1" vertex="1">
          <mxGeometry x="1005" y="243" width="160" height="80" as="geometry" />
        </mxCell>
        <mxCell id="DnQ4--VGCIlJsh_Cb7lD-44" value="Information related&lt;br/&gt;to the specialized field" style="ellipse;whiteSpace=wrap;html=1;" parent="1" vertex="1">
          <mxGeometry x="740" y="163" width="135" height="80" as="geometry" />
        </mxCell>
        <mxCell id="DnQ4--VGCIlJsh_Cb7lD-45" value="" style="endArrow=none;html=1;rounded=0;" parent="1" source="DnQ4--VGCIlJsh_Cb7lD-41" target="DnQ4--VGCIlJsh_Cb7lD-44" edge="1">
          <mxGeometry width="50" height="50" relative="1" as="geometry">
            <mxPoint x="1055" y="363" as="sourcePoint" />
            <mxPoint x="1105" y="313" as="targetPoint" />
          </mxGeometry>
        </mxCell>
        <mxCell id="DnQ4--VGCIlJsh_Cb7lD-47" value="" style="endArrow=none;html=1;rounded=0;" parent="1" source="DnQ4--VGCIlJsh_Cb7lD-41" target="m6qgLcc2T48I289HVZYg-3" edge="1">
          <mxGeometry width="50" height="50" relative="1" as="geometry">
            <mxPoint x="1120" y="223" as="sourcePoint" />
            <mxPoint x="1190" y="103" as="targetPoint" />
          </mxGeometry>
        </mxCell>
        <mxCell id="m6qgLcc2T48I289HVZYg-5" value="m" style="edgeLabel;html=1;align=center;verticalAlign=middle;resizable=0;points=[];fontSize=11;fontFamily=Helvetica;fontColor=default;" parent="DnQ4--VGCIlJsh_Cb7lD-47" vertex="1" connectable="0">
          <mxGeometry x="-0.4022" y="-5" relative="1" as="geometry">
            <mxPoint x="-3" y="-17" as="offset" />
          </mxGeometry>
        </mxCell>
        <mxCell id="DnQ4--VGCIlJsh_Cb7lD-48" value="execution level (Domestic&lt;br/&gt;or international)&amp;nbsp;" style="ellipse;whiteSpace=wrap;html=1;" parent="1" vertex="1">
          <mxGeometry x="1003.75" y="28" width="120" height="80" as="geometry" />
        </mxCell>
        <mxCell id="DnQ4--VGCIlJsh_Cb7lD-49" value="" style="endArrow=none;html=1;rounded=0;" parent="1" source="DnQ4--VGCIlJsh_Cb7lD-41" target="DnQ4--VGCIlJsh_Cb7lD-48" edge="1">
          <mxGeometry width="50" height="50" relative="1" as="geometry">
            <mxPoint x="1105" y="263" as="sourcePoint" />
            <mxPoint x="1125" y="333" as="targetPoint" />
          </mxGeometry>
        </mxCell>
        <mxCell id="DnQ4--VGCIlJsh_Cb7lD-52" value="&lt;pre style=&quot;text-align:right;line-height:27.0pt&quot;&gt;Start and end time&lt;i style=&quot;background-color: initial; font-family: Helvetica; text-align: center; white-space: normal;&quot;&gt;&lt;span style=&quot;font-size:9.0pt;font-family:&amp;quot;Times New Roman&amp;quot;,serif;mso-fareast-font-family:&lt;br/&gt;&amp;quot;Times New Roman&amp;quot;;color:#202124&quot;&gt;&amp;nbsp;&lt;/span&gt;&lt;/i&gt;&lt;/pre&gt;" style="ellipse;whiteSpace=wrap;html=1;" parent="1" vertex="1">
          <mxGeometry x="755" y="53" width="155" height="80" as="geometry" />
        </mxCell>
        <mxCell id="DnQ4--VGCIlJsh_Cb7lD-53" value="" style="endArrow=none;html=1;rounded=0;" parent="1" source="DnQ4--VGCIlJsh_Cb7lD-41" target="DnQ4--VGCIlJsh_Cb7lD-52" edge="1">
          <mxGeometry width="50" height="50" relative="1" as="geometry">
            <mxPoint x="1265" y="245.5" as="sourcePoint" />
            <mxPoint x="1285" y="315.5" as="targetPoint" />
          </mxGeometry>
        </mxCell>
        <mxCell id="DnQ4--VGCIlJsh_Cb7lD-54" value="" style="endArrow=none;html=1;rounded=0;" parent="1" source="DnQ4--VGCIlJsh_Cb7lD-41" target="DnQ4--VGCIlJsh_Cb7lD-55" edge="1">
          <mxGeometry width="50" height="50" relative="1" as="geometry">
            <mxPoint x="1085" y="243" as="sourcePoint" />
            <mxPoint x="1315" y="163" as="targetPoint" />
          </mxGeometry>
        </mxCell>
        <mxCell id="DnQ4--VGCIlJsh_Cb7lD-55" value="&amp;nbsp;executive officesâ€™s information" style="ellipse;whiteSpace=wrap;html=1;" parent="1" vertex="1">
          <mxGeometry x="1235" y="123" width="120" height="80" as="geometry" />
        </mxCell>
        <mxCell id="4cyTBoL2mbChuSqTaiiy-3" value="Is A" style="triangle;rotation=-90;align=center;whiteSpace=wrap;html=1;portConstraintRotation=0;" parent="1" vertex="1">
          <mxGeometry x="1046.25" y="336.75" width="77.5" height="90" as="geometry" />
        </mxCell>
        <mxCell id="DnQ4--VGCIlJsh_Cb7lD-17" value="" style="endArrow=none;html=1;rounded=0;exitX=1;exitY=0.5;exitDx=0;exitDy=0;entryX=0.5;entryY=1;entryDx=0;entryDy=0;" parent="1" source="4cyTBoL2mbChuSqTaiiy-3" target="DnQ4--VGCIlJsh_Cb7lD-41" edge="1">
          <mxGeometry width="50" height="50" relative="1" as="geometry">
            <mxPoint x="1000" y="478" as="sourcePoint" />
            <mxPoint x="1090" y="403" as="targetPoint" />
          </mxGeometry>
        </mxCell>
        <mxCell id="DnQ4--VGCIlJsh_Cb7lD-16" value="" style="endArrow=none;html=1;rounded=0;" parent="1" source="DnQ4--VGCIlJsh_Cb7lD-94" target="4cyTBoL2mbChuSqTaiiy-3" edge="1">
          <mxGeometry width="50" height="50" relative="1" as="geometry">
            <mxPoint x="690" y="643" as="sourcePoint" />
            <mxPoint x="1085" y="428" as="targetPoint" />
          </mxGeometry>
        </mxCell>
        <mxCell id="DnQ4--VGCIlJsh_Cb7lD-4" value="assisting in&amp;nbsp;" style="rounded=0;whiteSpace=wrap;html=1;" parent="1" vertex="1">
          <mxGeometry x="635" y="373" width="120" height="60" as="geometry" />
        </mxCell>
        <mxCell id="4cyTBoL2mbChuSqTaiiy-4" value="" style="endArrow=none;html=1;rounded=0;exitX=0.5;exitY=0;exitDx=0;exitDy=0;" parent="1" source="DnQ4--VGCIlJsh_Cb7lD-4" target="4cyTBoL2mbChuSqTaiiy-3" edge="1">
          <mxGeometry width="50" height="50" relative="1" as="geometry">
            <mxPoint x="1200" y="458" as="sourcePoint" />
            <mxPoint x="1095" y="313" as="targetPoint" />
          </mxGeometry>
        </mxCell>
        <mxCell id="DnQ4--VGCIlJsh_Cb7lD-19" value="" style="endArrow=none;html=1;rounded=0;" parent="1" source="4cyTBoL2mbChuSqTaiiy-3" target="DnQ4--VGCIlJsh_Cb7lD-73" edge="1">
          <mxGeometry width="50" height="50" relative="1" as="geometry">
            <mxPoint x="1130" y="343" as="sourcePoint" />
            <mxPoint x="1550" y="543" as="targetPoint" />
            <Array as="points" />
          </mxGeometry>
        </mxCell>
        <mxCell id="cqat6_V7KJYR1HcZDutZ-7" value="&lt;div&gt;Funding&lt;/div&gt;" style="rhombus;whiteSpace=wrap;html=1;" parent="1" vertex="1">
          <mxGeometry x="1235" y="243" width="90" height="80" as="geometry" />
        </mxCell>
        <mxCell id="cqat6_V7KJYR1HcZDutZ-8" value="" style="endArrow=none;html=1;rounded=0;" parent="1" source="cqat6_V7KJYR1HcZDutZ-7" target="DnQ4--VGCIlJsh_Cb7lD-41" edge="1">
          <mxGeometry width="50" height="50" relative="1" as="geometry">
            <mxPoint x="1200" y="343" as="sourcePoint" />
            <mxPoint x="1250" y="293" as="targetPoint" />
          </mxGeometry>
        </mxCell>
        <mxCell id="cqat6_V7KJYR1HcZDutZ-9" value="" style="endArrow=none;html=1;rounded=0;" parent="1" source="cqat6_V7KJYR1HcZDutZ-7" target="4cyTBoL2mbChuSqTaiiy-13" edge="1">
          <mxGeometry width="50" height="50" relative="1" as="geometry">
            <mxPoint x="1270" y="413" as="sourcePoint" />
            <mxPoint x="1320" y="363" as="targetPoint" />
          </mxGeometry>
        </mxCell>
        <mxCell id="m6qgLcc2T48I289HVZYg-3" value="sponsors" style="rhombus;whiteSpace=wrap;html=1;fontFamily=Helvetica;fontSize=11;fontColor=default;" parent="1" vertex="1">
          <mxGeometry x="1180" y="28" width="80" height="80" as="geometry" />
        </mxCell>
        <mxCell id="4cyTBoL2mbChuSqTaiiy-13" value="Fund" style="rounded=0;whiteSpace=wrap;html=1;" parent="1" vertex="1">
          <mxGeometry x="1450" y="253" width="80" height="50" as="geometry" />
        </mxCell>
        <mxCell id="4cyTBoL2mbChuSqTaiiy-14" value="&lt;div&gt;companies&lt;/div&gt;" style="ellipse;whiteSpace=wrap;html=1;" parent="1" vertex="1">
          <mxGeometry x="1567.5" y="323" width="90" height="55" as="geometry" />
        </mxCell>
        <mxCell id="4cyTBoL2mbChuSqTaiiy-17" value="&lt;div&gt;Donation Value&lt;/div&gt;" style="ellipse;whiteSpace=wrap;html=1;" parent="1" vertex="1">
          <mxGeometry x="1555" y="413" width="115" height="60" as="geometry" />
        </mxCell>
        <mxCell id="4cyTBoL2mbChuSqTaiiy-22" value="" style="endArrow=none;html=1;rounded=0;" parent="1" source="4cyTBoL2mbChuSqTaiiy-17" target="4cyTBoL2mbChuSqTaiiy-13" edge="1">
          <mxGeometry width="50" height="50" relative="1" as="geometry">
            <mxPoint x="1445" y="366.75" as="sourcePoint" />
            <mxPoint x="1495" y="316.75" as="targetPoint" />
          </mxGeometry>
        </mxCell>
        <mxCell id="4cyTBoL2mbChuSqTaiiy-23" value="" style="endArrow=none;html=1;rounded=0;" parent="1" source="4cyTBoL2mbChuSqTaiiy-13" target="4cyTBoL2mbChuSqTaiiy-14" edge="1">
          <mxGeometry width="50" height="50" relative="1" as="geometry">
            <mxPoint x="1555" y="306.75" as="sourcePoint" />
            <mxPoint x="1605" y="256.75" as="targetPoint" />
          </mxGeometry>
        </mxCell>
        <mxCell id="1vJ2a3ICqRxrZBc96WOV-30" style="edgeStyle=orthogonalEdgeStyle;rounded=0;orthogonalLoop=1;jettySize=auto;html=1;exitX=0;exitY=0.75;exitDx=0;exitDy=0;entryX=0;entryY=0.5;entryDx=0;entryDy=0;" edge="1" parent="1" source="4cyTBoL2mbChuSqTaiiy-13" target="4cyTBoL2mbChuSqTaiiy-13">
          <mxGeometry relative="1" as="geometry" />
        </mxCell>
        <mxCell id="4cyTBoL2mbChuSqTaiiy-15" value="Fund_ID" style="ellipse;whiteSpace=wrap;html=1;" parent="1" vertex="1">
          <mxGeometry x="1370" y="320.5" width="90" height="60" as="geometry" />
        </mxCell>
        <mxCell id="4cyTBoL2mbChuSqTaiiy-20" value="" style="endArrow=none;html=1;rounded=0;" parent="1" source="4cyTBoL2mbChuSqTaiiy-15" target="4cyTBoL2mbChuSqTaiiy-13" edge="1">
          <mxGeometry width="50" height="50" relative="1" as="geometry">
            <mxPoint x="1310" y="396.75" as="sourcePoint" />
            <mxPoint x="1360" y="346.75" as="targetPoint" />
          </mxGeometry>
        </mxCell>
        <mxCell id="4cyTBoL2mbChuSqTaiiy-16" value="Loan Value" style="ellipse;whiteSpace=wrap;html=1;" parent="1" vertex="1">
          <mxGeometry x="1445" y="413" width="90" height="60" as="geometry" />
        </mxCell>
        <mxCell id="4cyTBoL2mbChuSqTaiiy-21" value="" style="endArrow=none;html=1;rounded=0;" parent="1" source="4cyTBoL2mbChuSqTaiiy-16" target="4cyTBoL2mbChuSqTaiiy-13" edge="1">
          <mxGeometry width="50" height="50" relative="1" as="geometry">
            <mxPoint x="1325" y="366.75" as="sourcePoint" />
            <mxPoint x="1375" y="316.75" as="targetPoint" />
          </mxGeometry>
        </mxCell>
        <mxCell id="1vJ2a3ICqRxrZBc96WOV-44" value="" style="rhombus;whiteSpace=wrap;html=1;" vertex="1" parent="1">
          <mxGeometry x="-160" y="363" width="150" height="80" as="geometry" />
        </mxCell>
        <mxCell id="1vJ2a3ICqRxrZBc96WOV-45" value="" style="endArrow=none;html=1;rounded=0;" edge="1" parent="1" source="4cyTBoL2mbChuSqTaiiy-8" target="1vJ2a3ICqRxrZBc96WOV-44">
          <mxGeometry width="50" height="50" relative="1" as="geometry">
            <mxPoint x="120" y="215" as="sourcePoint" />
            <mxPoint x="-355" y="227" as="targetPoint" />
          </mxGeometry>
        </mxCell>
        <mxCell id="1vJ2a3ICqRxrZBc96WOV-46" value="" style="endArrow=none;html=1;rounded=0;exitX=1;exitY=0.25;exitDx=0;exitDy=0;entryX=0.376;entryY=0.988;entryDx=0;entryDy=0;entryPerimeter=0;" edge="1" parent="1" source="DnQ4--VGCIlJsh_Cb7lD-5" target="1vJ2a3ICqRxrZBc96WOV-44">
          <mxGeometry width="50" height="50" relative="1" as="geometry">
            <mxPoint x="142" y="243" as="sourcePoint" />
            <mxPoint x="-45" y="389" as="targetPoint" />
          </mxGeometry>
        </mxCell>
        <mxCell id="1vJ2a3ICqRxrZBc96WOV-47" value="research centers&amp;nbsp;" style="ellipse;whiteSpace=wrap;html=1;" vertex="1" parent="1">
          <mxGeometry x="-200" y="950" width="120" height="80" as="geometry" />
        </mxCell>
        <mxCell id="1vJ2a3ICqRxrZBc96WOV-48" value="GOV org" style="ellipse;whiteSpace=wrap;html=1;" vertex="1" parent="1">
          <mxGeometry x="-630" y="960" width="120" height="80" as="geometry" />
        </mxCell>
        <mxCell id="1vJ2a3ICqRxrZBc96WOV-49" value="N GOV org" style="ellipse;whiteSpace=wrap;html=1;" vertex="1" parent="1">
          <mxGeometry x="-500" y="960" width="120" height="80" as="geometry" />
        </mxCell>
        <mxCell id="1vJ2a3ICqRxrZBc96WOV-50" value="Universities" style="ellipse;whiteSpace=wrap;html=1;" vertex="1" parent="1">
          <mxGeometry x="-350" y="960" width="120" height="80" as="geometry" />
        </mxCell>
        <mxCell id="DnQ4--VGCIlJsh_Cb7lD-5" value="Institutes" style="rounded=0;whiteSpace=wrap;html=1;" parent="1" vertex="1">
          <mxGeometry x="-440" y="600" width="160" height="80" as="geometry" />
        </mxCell>
        <mxCell id="DnQ4--VGCIlJsh_Cb7lD-28" value="&lt;p style=&quot;border-color: var(--border-color);&quot; class=&quot;MsoNormal&quot;&gt;Practical&amp;nbsp;&lt;br&gt;&lt;/p&gt;" style="rounded=inf;whiteSpace=wrap;html=1;align=center;" parent="1" vertex="1">
          <mxGeometry x="-565" y="845" width="110" height="60" as="geometry" />
        </mxCell>
        <mxCell id="DnQ4--VGCIlJsh_Cb7lD-29" value="Academic&amp;nbsp;" style="rounded=0;whiteSpace=wrap;html=1;" parent="1" vertex="1">
          <mxGeometry x="-285" y="845" width="120" height="60" as="geometry" />
        </mxCell>
        <mxCell id="DnQ4--VGCIlJsh_Cb7lD-31" value="" style="endArrow=none;html=1;rounded=0;exitX=0.5;exitY=0;exitDx=0;exitDy=0;" parent="1" source="DnQ4--VGCIlJsh_Cb7lD-28" target="cqat6_V7KJYR1HcZDutZ-10" edge="1">
          <mxGeometry width="50" height="50" relative="1" as="geometry">
            <mxPoint x="-456" y="1095" as="sourcePoint" />
            <mxPoint x="-415" y="770" as="targetPoint" />
          </mxGeometry>
        </mxCell>
        <mxCell id="DnQ4--VGCIlJsh_Cb7lD-32" value="" style="endArrow=none;html=1;rounded=0;exitX=0.5;exitY=0;exitDx=0;exitDy=0;" parent="1" source="DnQ4--VGCIlJsh_Cb7lD-29" target="cqat6_V7KJYR1HcZDutZ-10" edge="1">
          <mxGeometry width="50" height="50" relative="1" as="geometry">
            <mxPoint x="-456" y="865" as="sourcePoint" />
            <mxPoint x="-315" y="780" as="targetPoint" />
          </mxGeometry>
        </mxCell>
        <mxCell id="DnQ4--VGCIlJsh_Cb7lD-33" value="" style="endArrow=none;html=1;rounded=0;exitX=0.5;exitY=0;exitDx=0;exitDy=0;" parent="1" source="1vJ2a3ICqRxrZBc96WOV-50" edge="1" target="DnQ4--VGCIlJsh_Cb7lD-29">
          <mxGeometry width="50" height="50" relative="1" as="geometry">
            <mxPoint x="-275" y="945" as="sourcePoint" />
            <mxPoint x="-230" y="905" as="targetPoint" />
          </mxGeometry>
        </mxCell>
        <mxCell id="DnQ4--VGCIlJsh_Cb7lD-34" value="" style="endArrow=none;html=1;rounded=0;" parent="1" source="1vJ2a3ICqRxrZBc96WOV-47" edge="1" target="DnQ4--VGCIlJsh_Cb7lD-29">
          <mxGeometry width="50" height="50" relative="1" as="geometry">
            <mxPoint x="-157.3399999999997" y="946.7400000000002" as="sourcePoint" />
            <mxPoint x="-230" y="905" as="targetPoint" />
          </mxGeometry>
        </mxCell>
        <mxCell id="DnQ4--VGCIlJsh_Cb7lD-35" value="" style="endArrow=none;html=1;rounded=0;" parent="1" source="1vJ2a3ICqRxrZBc96WOV-48" edge="1" target="DnQ4--VGCIlJsh_Cb7lD-28">
          <mxGeometry width="50" height="50" relative="1" as="geometry">
            <mxPoint x="-585" y="945" as="sourcePoint" />
            <mxPoint x="-530" y="905" as="targetPoint" />
          </mxGeometry>
        </mxCell>
        <mxCell id="DnQ4--VGCIlJsh_Cb7lD-36" value="" style="endArrow=none;html=1;rounded=0;entryX=0.635;entryY=0.988;entryDx=0;entryDy=0;entryPerimeter=0;" parent="1" source="1vJ2a3ICqRxrZBc96WOV-49" edge="1" target="DnQ4--VGCIlJsh_Cb7lD-28">
          <mxGeometry width="50" height="50" relative="1" as="geometry">
            <mxPoint x="-471.8399999999999" y="944.2800000000002" as="sourcePoint" />
            <mxPoint x="-530" y="905" as="targetPoint" />
          </mxGeometry>
        </mxCell>
        <mxCell id="cqat6_V7KJYR1HcZDutZ-10" value="Is A" style="triangle;whiteSpace=wrap;rotation=-90;" parent="1" vertex="1">
          <mxGeometry x="-397.5" y="697.5" width="75" height="80" as="geometry" />
        </mxCell>
        <mxCell id="cqat6_V7KJYR1HcZDutZ-11" value="" style="endArrow=none;html=1;rounded=0;" parent="1" source="cqat6_V7KJYR1HcZDutZ-10" target="DnQ4--VGCIlJsh_Cb7lD-5" edge="1">
          <mxGeometry width="50" height="50" relative="1" as="geometry">
            <mxPoint x="-465" y="770" as="sourcePoint" />
            <mxPoint x="-415" y="720" as="targetPoint" />
          </mxGeometry>
        </mxCell>
        <mxCell id="1vJ2a3ICqRxrZBc96WOV-52" value="Role" style="ellipse;whiteSpace=wrap;html=1;" vertex="1" parent="1">
          <mxGeometry x="500" y="336.75" width="100" height="60" as="geometry" />
        </mxCell>
        <mxCell id="1vJ2a3ICqRxrZBc96WOV-53" value="" style="endArrow=none;html=1;rounded=0;" edge="1" parent="1" source="1vJ2a3ICqRxrZBc96WOV-52" target="1vJ2a3ICqRxrZBc96WOV-23">
          <mxGeometry width="50" height="50" relative="1" as="geometry">
            <mxPoint x="495" y="268" as="sourcePoint" />
            <mxPoint x="618" y="218" as="targetPoint" />
          </mxGeometry>
        </mxCell>
      </root>
    </mxGraphModel>
  </diagram>
  <diagram id="ad8iDxqdHmgtu02T2C1P" name="Page-2">
    <mxGraphModel dx="1219" dy="769" grid="1" gridSize="10" guides="1" tooltips="1" connect="1" arrows="1" fold="1" page="1" pageScale="1" pageWidth="850" pageHeight="1100" math="0" shadow="0">
      <root>
        <mxCell id="0" />
        <mxCell id="1" parent="0" />
        <mxCell id="AIV9mb6m1nxjzcw5Kp6W-3" style="edgeStyle=none;shape=connector;rounded=0;orthogonalLoop=1;jettySize=auto;html=1;exitX=0.5;exitY=1;exitDx=0;exitDy=0;entryX=0.5;entryY=0;entryDx=0;entryDy=0;labelBackgroundColor=default;strokeColor=default;fontFamily=Helvetica;fontSize=11;fontColor=default;endArrow=none;" edge="1" parent="1" source="AIV9mb6m1nxjzcw5Kp6W-1" target="AIV9mb6m1nxjzcw5Kp6W-2">
          <mxGeometry relative="1" as="geometry" />
        </mxCell>
        <mxCell id="AIV9mb6m1nxjzcw5Kp6W-1" value="&lt;div&gt;R act&lt;/div&gt;" style="rounded=0;whiteSpace=wrap;html=1;fontFamily=Helvetica;fontSize=11;fontColor=default;" vertex="1" parent="1">
          <mxGeometry x="190" y="180" width="120" height="60" as="geometry" />
        </mxCell>
        <mxCell id="AIV9mb6m1nxjzcw5Kp6W-6" style="edgeStyle=none;shape=connector;rounded=0;orthogonalLoop=1;jettySize=auto;html=1;exitX=1;exitY=0.5;exitDx=0;exitDy=0;entryX=0;entryY=0.5;entryDx=0;entryDy=0;labelBackgroundColor=default;strokeColor=default;fontFamily=Helvetica;fontSize=11;fontColor=default;endArrow=none;" edge="1" parent="1" source="AIV9mb6m1nxjzcw5Kp6W-2" target="AIV9mb6m1nxjzcw5Kp6W-5">
          <mxGeometry relative="1" as="geometry" />
        </mxCell>
        <mxCell id="AIV9mb6m1nxjzcw5Kp6W-2" value="&lt;div&gt;reseacher&lt;/div&gt;&lt;div&gt;&lt;br&gt;&lt;/div&gt;" style="rounded=0;whiteSpace=wrap;html=1;fontFamily=Helvetica;fontSize=11;fontColor=default;" vertex="1" parent="1">
          <mxGeometry x="190" y="380" width="120" height="60" as="geometry" />
        </mxCell>
        <mxCell id="AIV9mb6m1nxjzcw5Kp6W-4" value="" style="rhombus;whiteSpace=wrap;html=1;fontFamily=Helvetica;fontSize=11;fontColor=default;" vertex="1" parent="1">
          <mxGeometry x="210" y="260" width="80" height="80" as="geometry" />
        </mxCell>
        <mxCell id="AIV9mb6m1nxjzcw5Kp6W-5" value="&lt;div&gt;institute&lt;/div&gt;&lt;div&gt;&lt;br&gt;&lt;/div&gt;" style="rounded=0;whiteSpace=wrap;html=1;fontFamily=Helvetica;fontSize=11;fontColor=default;" vertex="1" parent="1">
          <mxGeometry x="570" y="290" width="120" height="60" as="geometry" />
        </mxCell>
        <mxCell id="AIV9mb6m1nxjzcw5Kp6W-7" value="" style="rhombus;whiteSpace=wrap;html=1;fontFamily=Helvetica;fontSize=11;fontColor=default;" vertex="1" parent="1">
          <mxGeometry x="400" y="330" width="80" height="80" as="geometry" />
        </mxCell>
      </root>
    </mxGraphModel>
  </diagram>
  <diagram name="Page-1" id="TsQrNgmarslUPqn20Cum">
    <mxGraphModel dx="2256" dy="888" grid="1" gridSize="10" guides="1" tooltips="1" connect="1" arrows="1" fold="1" page="1" pageScale="1" pageWidth="850" pageHeight="1100" math="0" shadow="0">
      <root>
        <mxCell id="0" />
        <mxCell id="1" parent="0" />
        <mxCell id="DnQ4--VGCIlJsh_Cb7lD-5" value="Institutes" style="rounded=0;whiteSpace=wrap;html=1;" parent="1" vertex="1">
          <mxGeometry x="1165" y="20" width="115" height="50" as="geometry" />
        </mxCell>
        <mxCell id="DnQ4--VGCIlJsh_Cb7lD-6" value="related &amp;nbsp;Information&lt;br/&gt;of member&amp;nbsp;" style="rounded=0;whiteSpace=wrap;html=1;" parent="1" vertex="1">
          <mxGeometry x="230" y="1800" width="120" height="60" as="geometry" />
        </mxCell>
        <mxCell id="DnQ4--VGCIlJsh_Cb7lD-28" value="&lt;p style=&quot;border-color: var(--border-color);&quot; class=&quot;MsoNormal&quot;&gt;Practical&amp;nbsp;&lt;br&gt;&lt;/p&gt;" style="rounded=inf;whiteSpace=wrap;html=1;align=center;" parent="1" vertex="1">
          <mxGeometry x="1020" y="265" width="110" height="60" as="geometry" />
        </mxCell>
        <mxCell id="DnQ4--VGCIlJsh_Cb7lD-29" value="Academic&amp;nbsp;" style="rounded=0;whiteSpace=wrap;html=1;" parent="1" vertex="1">
          <mxGeometry x="1300" y="265" width="120" height="60" as="geometry" />
        </mxCell>
        <mxCell id="DnQ4--VGCIlJsh_Cb7lD-31" value="" style="endArrow=none;html=1;rounded=0;exitX=0.5;exitY=0;exitDx=0;exitDy=0;" parent="1" source="DnQ4--VGCIlJsh_Cb7lD-28" target="cqat6_V7KJYR1HcZDutZ-10" edge="1">
          <mxGeometry width="50" height="50" relative="1" as="geometry">
            <mxPoint x="1129" y="515" as="sourcePoint" />
            <mxPoint x="1170" y="190" as="targetPoint" />
          </mxGeometry>
        </mxCell>
        <mxCell id="DnQ4--VGCIlJsh_Cb7lD-32" value="" style="endArrow=none;html=1;rounded=0;exitX=0.5;exitY=0;exitDx=0;exitDy=0;" parent="1" source="DnQ4--VGCIlJsh_Cb7lD-29" target="cqat6_V7KJYR1HcZDutZ-10" edge="1">
          <mxGeometry width="50" height="50" relative="1" as="geometry">
            <mxPoint x="1129" y="285" as="sourcePoint" />
            <mxPoint x="1270" y="200" as="targetPoint" />
          </mxGeometry>
        </mxCell>
        <mxCell id="DnQ4--VGCIlJsh_Cb7lD-33" value="" style="endArrow=none;html=1;rounded=0;exitX=0.5;exitY=0;exitDx=0;exitDy=0;" parent="1" source="DnQ4--VGCIlJsh_Cb7lD-38" edge="1">
          <mxGeometry width="50" height="50" relative="1" as="geometry">
            <mxPoint x="1310" y="365" as="sourcePoint" />
            <mxPoint x="1355" y="325" as="targetPoint" />
          </mxGeometry>
        </mxCell>
        <mxCell id="DnQ4--VGCIlJsh_Cb7lD-34" value="" style="endArrow=none;html=1;rounded=0;exitX=0.474;exitY=0.029;exitDx=0;exitDy=0;exitPerimeter=0;" parent="1" source="DnQ4--VGCIlJsh_Cb7lD-37" edge="1">
          <mxGeometry width="50" height="50" relative="1" as="geometry">
            <mxPoint x="1410" y="365" as="sourcePoint" />
            <mxPoint x="1355" y="325" as="targetPoint" />
          </mxGeometry>
        </mxCell>
        <mxCell id="DnQ4--VGCIlJsh_Cb7lD-35" value="" style="endArrow=none;html=1;rounded=0;entryX=0.5;entryY=1;entryDx=0;entryDy=0;exitX=0.5;exitY=0;exitDx=0;exitDy=0;" parent="1" source="DnQ4--VGCIlJsh_Cb7lD-40" edge="1">
          <mxGeometry width="50" height="50" relative="1" as="geometry">
            <mxPoint x="1010" y="365" as="sourcePoint" />
            <mxPoint x="1055" y="325" as="targetPoint" />
          </mxGeometry>
        </mxCell>
        <mxCell id="DnQ4--VGCIlJsh_Cb7lD-36" value="" style="endArrow=none;html=1;rounded=0;exitX=0.424;exitY=-0.012;exitDx=0;exitDy=0;exitPerimeter=0;" parent="1" source="DnQ4--VGCIlJsh_Cb7lD-39" edge="1">
          <mxGeometry width="50" height="50" relative="1" as="geometry">
            <mxPoint x="1110" y="365" as="sourcePoint" />
            <mxPoint x="1055" y="325" as="targetPoint" />
          </mxGeometry>
        </mxCell>
        <mxCell id="DnQ4--VGCIlJsh_Cb7lD-37" value="research centers&amp;nbsp;" style="rounded=0;whiteSpace=wrap;html=1;" parent="1" vertex="1">
          <mxGeometry x="1385" y="365" width="90" height="60" as="geometry" />
        </mxCell>
        <mxCell id="DnQ4--VGCIlJsh_Cb7lD-38" value="Universities" style="rounded=0;whiteSpace=wrap;html=1;" parent="1" vertex="1">
          <mxGeometry x="1265" y="365" width="90" height="60" as="geometry" />
        </mxCell>
        <mxCell id="DnQ4--VGCIlJsh_Cb7lD-39" value="&lt;p class=&quot;MsoNormal&quot;&gt;N GOV org&lt;/p&gt;" style="rounded=0;whiteSpace=wrap;html=1;" parent="1" vertex="1">
          <mxGeometry x="1075" y="365" width="90" height="60" as="geometry" />
        </mxCell>
        <mxCell id="DnQ4--VGCIlJsh_Cb7lD-40" value="GOV org" style="rounded=0;whiteSpace=wrap;html=1;" parent="1" vertex="1">
          <mxGeometry x="955" y="365" width="90" height="60" as="geometry" />
        </mxCell>
        <mxCell id="DnQ4--VGCIlJsh_Cb7lD-56" value="conference papers" style="rounded=0;whiteSpace=wrap;html=1;" parent="1" vertex="1">
          <mxGeometry x="245" y="1330" width="120" height="60" as="geometry" />
        </mxCell>
        <mxCell id="DnQ4--VGCIlJsh_Cb7lD-57" value="&lt;span style=&quot;font-size:11.0pt;&lt;br/&gt;line-height:107%;font-family:&amp;quot;Calibri&amp;quot;,sans-serif;mso-ascii-theme-font:minor-latin;&lt;br/&gt;mso-fareast-font-family:Calibri;mso-fareast-theme-font:minor-latin;mso-hansi-theme-font:&lt;br/&gt;minor-latin;mso-bidi-font-family:&amp;quot;2  Nazanin&amp;quot;;mso-ansi-language:EN-US;&lt;br/&gt;mso-fareast-language:EN-US;mso-bidi-language:AR-SA&quot;&gt;\page numbers&lt;/span&gt;" style="ellipse;whiteSpace=wrap;html=1;" parent="1" vertex="1">
          <mxGeometry x="40" y="1540" width="120" height="80" as="geometry" />
        </mxCell>
        <mxCell id="DnQ4--VGCIlJsh_Cb7lD-58" value="" style="endArrow=none;html=1;rounded=0;entryX=0.5;entryY=1;entryDx=0;entryDy=0;" parent="1" source="DnQ4--VGCIlJsh_Cb7lD-57" target="DnQ4--VGCIlJsh_Cb7lD-56" edge="1">
          <mxGeometry width="50" height="50" relative="1" as="geometry">
            <mxPoint x="45" y="1410" as="sourcePoint" />
            <mxPoint x="95" y="1360" as="targetPoint" />
          </mxGeometry>
        </mxCell>
        <mxCell id="DnQ4--VGCIlJsh_Cb7lD-59" value="Academic" style="ellipse;whiteSpace=wrap;html=1;" parent="1" vertex="1">
          <mxGeometry x="455" y="1360" width="120" height="80" as="geometry" />
        </mxCell>
        <mxCell id="DnQ4--VGCIlJsh_Cb7lD-60" value="" style="endArrow=none;html=1;rounded=0;entryX=0.5;entryY=1;entryDx=0;entryDy=0;" parent="1" source="DnQ4--VGCIlJsh_Cb7lD-59" target="DnQ4--VGCIlJsh_Cb7lD-56" edge="1">
          <mxGeometry width="50" height="50" relative="1" as="geometry">
            <mxPoint x="185" y="1410" as="sourcePoint" />
            <mxPoint x="445" y="1380" as="targetPoint" />
          </mxGeometry>
        </mxCell>
        <mxCell id="DnQ4--VGCIlJsh_Cb7lD-61" value="executive" style="ellipse;whiteSpace=wrap;html=1;" parent="1" vertex="1">
          <mxGeometry x="455" y="1450" width="120" height="80" as="geometry" />
        </mxCell>
        <mxCell id="DnQ4--VGCIlJsh_Cb7lD-62" value="" style="endArrow=none;html=1;rounded=0;entryX=0.5;entryY=1;entryDx=0;entryDy=0;" parent="1" source="DnQ4--VGCIlJsh_Cb7lD-61" target="DnQ4--VGCIlJsh_Cb7lD-56" edge="1">
          <mxGeometry width="50" height="50" relative="1" as="geometry">
            <mxPoint x="65" y="1430" as="sourcePoint" />
            <mxPoint x="325" y="1400" as="targetPoint" />
            <Array as="points">
              <mxPoint x="365" y="1420" />
            </Array>
          </mxGeometry>
        </mxCell>
        <mxCell id="DnQ4--VGCIlJsh_Cb7lD-63" value="Date of admission" style="ellipse;whiteSpace=wrap;html=1;" parent="1" vertex="1">
          <mxGeometry x="40" y="1450" width="120" height="80" as="geometry" />
        </mxCell>
        <mxCell id="DnQ4--VGCIlJsh_Cb7lD-64" value="" style="endArrow=none;html=1;rounded=0;entryX=0.5;entryY=1;entryDx=0;entryDy=0;" parent="1" source="DnQ4--VGCIlJsh_Cb7lD-63" target="DnQ4--VGCIlJsh_Cb7lD-56" edge="1">
          <mxGeometry width="50" height="50" relative="1" as="geometry">
            <mxPoint x="75" y="1440" as="sourcePoint" />
            <mxPoint x="335" y="1410" as="targetPoint" />
            <Array as="points">
              <mxPoint x="235" y="1420" />
            </Array>
          </mxGeometry>
        </mxCell>
        <mxCell id="DnQ4--VGCIlJsh_Cb7lD-65" value="&lt;span style=&quot;font-size:11.0pt;&lt;br/&gt;line-height:107%;font-family:&amp;quot;Calibri&amp;quot;,sans-serif;mso-ascii-theme-font:minor-latin;&lt;br/&gt;mso-fareast-font-family:Calibri;mso-fareast-theme-font:minor-latin;mso-hansi-theme-font:&lt;br/&gt;minor-latin;mso-bidi-font-family:&amp;quot;2  Nazanin&amp;quot;;mso-ansi-language:EN-US;&lt;br/&gt;mso-fareast-language:EN-US;mso-bidi-language:AR-SA&quot;&gt;shipping time&lt;/span&gt;" style="ellipse;whiteSpace=wrap;html=1;" parent="1" vertex="1">
          <mxGeometry x="40" y="1360" width="120" height="80" as="geometry" />
        </mxCell>
        <mxCell id="DnQ4--VGCIlJsh_Cb7lD-66" value="" style="endArrow=none;html=1;rounded=0;entryX=0.5;entryY=1;entryDx=0;entryDy=0;" parent="1" source="DnQ4--VGCIlJsh_Cb7lD-65" target="DnQ4--VGCIlJsh_Cb7lD-56" edge="1">
          <mxGeometry width="50" height="50" relative="1" as="geometry">
            <mxPoint x="-100" y="1410" as="sourcePoint" />
            <mxPoint x="160" y="1380" as="targetPoint" />
          </mxGeometry>
        </mxCell>
        <mxCell id="DnQ4--VGCIlJsh_Cb7lD-67" value="Reviewers" style="ellipse;whiteSpace=wrap;html=1;" parent="1" vertex="1">
          <mxGeometry x="455" y="1540" width="120" height="80" as="geometry" />
        </mxCell>
        <mxCell id="DnQ4--VGCIlJsh_Cb7lD-68" value="" style="endArrow=none;html=1;rounded=0;entryX=0.5;entryY=1;entryDx=0;entryDy=0;" parent="1" source="DnQ4--VGCIlJsh_Cb7lD-67" target="DnQ4--VGCIlJsh_Cb7lD-56" edge="1">
          <mxGeometry width="50" height="50" relative="1" as="geometry">
            <mxPoint x="95" y="1460" as="sourcePoint" />
            <mxPoint x="305" y="1440" as="targetPoint" />
          </mxGeometry>
        </mxCell>
        <mxCell id="DnQ4--VGCIlJsh_Cb7lD-69" value="sponsors" style="ellipse;whiteSpace=wrap;html=1;" parent="1" vertex="1">
          <mxGeometry x="315" y="1540" width="120" height="80" as="geometry" />
        </mxCell>
        <mxCell id="DnQ4--VGCIlJsh_Cb7lD-70" value="" style="endArrow=none;html=1;rounded=0;entryX=0.5;entryY=1;entryDx=0;entryDy=0;" parent="1" source="DnQ4--VGCIlJsh_Cb7lD-69" target="DnQ4--VGCIlJsh_Cb7lD-56" edge="1">
          <mxGeometry width="50" height="50" relative="1" as="geometry">
            <mxPoint x="105" y="1470" as="sourcePoint" />
            <mxPoint x="365" y="1440" as="targetPoint" />
          </mxGeometry>
        </mxCell>
        <mxCell id="DnQ4--VGCIlJsh_Cb7lD-71" value="budget" style="ellipse;whiteSpace=wrap;html=1;" parent="1" vertex="1">
          <mxGeometry x="180" y="1540" width="120" height="80" as="geometry" />
        </mxCell>
        <mxCell id="DnQ4--VGCIlJsh_Cb7lD-72" value="" style="endArrow=none;html=1;rounded=0;entryX=0.5;entryY=1;entryDx=0;entryDy=0;" parent="1" source="DnQ4--VGCIlJsh_Cb7lD-71" target="DnQ4--VGCIlJsh_Cb7lD-56" edge="1">
          <mxGeometry width="50" height="50" relative="1" as="geometry">
            <mxPoint x="-5" y="1510" as="sourcePoint" />
            <mxPoint x="255" y="1480" as="targetPoint" />
          </mxGeometry>
        </mxCell>
        <mxCell id="DnQ4--VGCIlJsh_Cb7lD-73" value="workshops" style="rounded=0;whiteSpace=wrap;html=1;" parent="1" vertex="1">
          <mxGeometry x="1450" y="1330" width="120" height="60" as="geometry" />
        </mxCell>
        <mxCell id="DnQ4--VGCIlJsh_Cb7lD-74" value="&lt;span style=&quot;font-size:11.0pt;&lt;br/&gt;line-height:107%;font-family:&amp;quot;Calibri&amp;quot;,sans-serif;mso-ascii-theme-font:minor-latin;&lt;br/&gt;mso-fareast-font-family:Calibri;mso-fareast-theme-font:minor-latin;mso-hansi-theme-font:&lt;br/&gt;minor-latin;mso-bidi-font-family:&amp;quot;2  Nazanin&amp;quot;;mso-ansi-language:EN-US;&lt;br/&gt;mso-fareast-language:EN-US;mso-bidi-language:AR-SA&quot;&gt;page numbers&lt;/span&gt;" style="ellipse;whiteSpace=wrap;html=1;" parent="1" vertex="1">
          <mxGeometry x="1245" y="1540" width="120" height="80" as="geometry" />
        </mxCell>
        <mxCell id="DnQ4--VGCIlJsh_Cb7lD-75" value="" style="endArrow=none;html=1;rounded=0;entryX=0.5;entryY=1;entryDx=0;entryDy=0;" parent="1" source="DnQ4--VGCIlJsh_Cb7lD-74" target="DnQ4--VGCIlJsh_Cb7lD-73" edge="1">
          <mxGeometry width="50" height="50" relative="1" as="geometry">
            <mxPoint x="1250" y="1410" as="sourcePoint" />
            <mxPoint x="1300" y="1360" as="targetPoint" />
          </mxGeometry>
        </mxCell>
        <mxCell id="DnQ4--VGCIlJsh_Cb7lD-76" value="Academic" style="ellipse;whiteSpace=wrap;html=1;" parent="1" vertex="1">
          <mxGeometry x="1660" y="1360" width="120" height="80" as="geometry" />
        </mxCell>
        <mxCell id="DnQ4--VGCIlJsh_Cb7lD-77" value="" style="endArrow=none;html=1;rounded=0;entryX=0.5;entryY=1;entryDx=0;entryDy=0;" parent="1" source="DnQ4--VGCIlJsh_Cb7lD-76" target="DnQ4--VGCIlJsh_Cb7lD-73" edge="1">
          <mxGeometry width="50" height="50" relative="1" as="geometry">
            <mxPoint x="1390" y="1410" as="sourcePoint" />
            <mxPoint x="1650" y="1380" as="targetPoint" />
          </mxGeometry>
        </mxCell>
        <mxCell id="DnQ4--VGCIlJsh_Cb7lD-78" value="executive" style="ellipse;whiteSpace=wrap;html=1;" parent="1" vertex="1">
          <mxGeometry x="1660" y="1450" width="120" height="80" as="geometry" />
        </mxCell>
        <mxCell id="DnQ4--VGCIlJsh_Cb7lD-79" value="" style="endArrow=none;html=1;rounded=0;entryX=0.5;entryY=1;entryDx=0;entryDy=0;" parent="1" source="DnQ4--VGCIlJsh_Cb7lD-78" target="DnQ4--VGCIlJsh_Cb7lD-73" edge="1">
          <mxGeometry width="50" height="50" relative="1" as="geometry">
            <mxPoint x="1270" y="1430" as="sourcePoint" />
            <mxPoint x="1530" y="1400" as="targetPoint" />
            <Array as="points">
              <mxPoint x="1570" y="1420" />
            </Array>
          </mxGeometry>
        </mxCell>
        <mxCell id="DnQ4--VGCIlJsh_Cb7lD-80" value="Date of admission" style="ellipse;whiteSpace=wrap;html=1;" parent="1" vertex="1">
          <mxGeometry x="1245" y="1450" width="120" height="80" as="geometry" />
        </mxCell>
        <mxCell id="DnQ4--VGCIlJsh_Cb7lD-81" value="" style="endArrow=none;html=1;rounded=0;entryX=0.5;entryY=1;entryDx=0;entryDy=0;" parent="1" source="DnQ4--VGCIlJsh_Cb7lD-80" target="DnQ4--VGCIlJsh_Cb7lD-73" edge="1">
          <mxGeometry width="50" height="50" relative="1" as="geometry">
            <mxPoint x="1280" y="1440" as="sourcePoint" />
            <mxPoint x="1540" y="1410" as="targetPoint" />
            <Array as="points">
              <mxPoint x="1440" y="1420" />
            </Array>
          </mxGeometry>
        </mxCell>
        <mxCell id="DnQ4--VGCIlJsh_Cb7lD-82" value="&lt;span style=&quot;font-size:11.0pt;&lt;br/&gt;line-height:107%;font-family:&amp;quot;Calibri&amp;quot;,sans-serif;mso-ascii-theme-font:minor-latin;&lt;br/&gt;mso-fareast-font-family:Calibri;mso-fareast-theme-font:minor-latin;mso-hansi-theme-font:&lt;br/&gt;minor-latin;mso-bidi-font-family:&amp;quot;2  Nazanin&amp;quot;;mso-ansi-language:EN-US;&lt;br/&gt;mso-fareast-language:EN-US;mso-bidi-language:AR-SA&quot;&gt;shipping time&lt;/span&gt;" style="ellipse;whiteSpace=wrap;html=1;" parent="1" vertex="1">
          <mxGeometry x="1245" y="1360" width="120" height="80" as="geometry" />
        </mxCell>
        <mxCell id="DnQ4--VGCIlJsh_Cb7lD-83" value="" style="endArrow=none;html=1;rounded=0;entryX=0.5;entryY=1;entryDx=0;entryDy=0;" parent="1" source="DnQ4--VGCIlJsh_Cb7lD-82" target="DnQ4--VGCIlJsh_Cb7lD-73" edge="1">
          <mxGeometry width="50" height="50" relative="1" as="geometry">
            <mxPoint x="1105" y="1410" as="sourcePoint" />
            <mxPoint x="1365" y="1380" as="targetPoint" />
          </mxGeometry>
        </mxCell>
        <mxCell id="DnQ4--VGCIlJsh_Cb7lD-84" value="Reviewers" style="ellipse;whiteSpace=wrap;html=1;" parent="1" vertex="1">
          <mxGeometry x="1660" y="1540" width="120" height="80" as="geometry" />
        </mxCell>
        <mxCell id="DnQ4--VGCIlJsh_Cb7lD-85" value="" style="endArrow=none;html=1;rounded=0;entryX=0.5;entryY=1;entryDx=0;entryDy=0;" parent="1" source="DnQ4--VGCIlJsh_Cb7lD-84" target="DnQ4--VGCIlJsh_Cb7lD-73" edge="1">
          <mxGeometry width="50" height="50" relative="1" as="geometry">
            <mxPoint x="1300" y="1460" as="sourcePoint" />
            <mxPoint x="1510" y="1440" as="targetPoint" />
          </mxGeometry>
        </mxCell>
        <mxCell id="DnQ4--VGCIlJsh_Cb7lD-86" value="sponsors" style="ellipse;whiteSpace=wrap;html=1;" parent="1" vertex="1">
          <mxGeometry x="1660" y="1630" width="120" height="80" as="geometry" />
        </mxCell>
        <mxCell id="DnQ4--VGCIlJsh_Cb7lD-87" value="" style="endArrow=none;html=1;rounded=0;entryX=0.5;entryY=1;entryDx=0;entryDy=0;exitX=0;exitY=0;exitDx=0;exitDy=0;" parent="1" source="DnQ4--VGCIlJsh_Cb7lD-86" target="DnQ4--VGCIlJsh_Cb7lD-73" edge="1">
          <mxGeometry width="50" height="50" relative="1" as="geometry">
            <mxPoint x="1693" y="1634" as="sourcePoint" />
            <mxPoint x="1570" y="1440" as="targetPoint" />
          </mxGeometry>
        </mxCell>
        <mxCell id="DnQ4--VGCIlJsh_Cb7lD-88" value="budget" style="ellipse;whiteSpace=wrap;html=1;" parent="1" vertex="1">
          <mxGeometry x="1245" y="1630" width="120" height="80" as="geometry" />
        </mxCell>
        <mxCell id="DnQ4--VGCIlJsh_Cb7lD-89" value="" style="endArrow=none;html=1;rounded=0;entryX=0.5;entryY=1;entryDx=0;entryDy=0;exitX=1;exitY=0;exitDx=0;exitDy=0;" parent="1" source="DnQ4--VGCIlJsh_Cb7lD-88" target="DnQ4--VGCIlJsh_Cb7lD-73" edge="1">
          <mxGeometry width="50" height="50" relative="1" as="geometry">
            <mxPoint x="1200" y="1510" as="sourcePoint" />
            <mxPoint x="1460" y="1480" as="targetPoint" />
          </mxGeometry>
        </mxCell>
        <mxCell id="DnQ4--VGCIlJsh_Cb7lD-90" value="place" style="ellipse;whiteSpace=wrap;html=1;" parent="1" vertex="1">
          <mxGeometry x="1385" y="1630" width="120" height="80" as="geometry" />
        </mxCell>
        <mxCell id="DnQ4--VGCIlJsh_Cb7lD-91" value="" style="endArrow=none;html=1;rounded=0;entryX=0.5;entryY=1;entryDx=0;entryDy=0;exitX=0.5;exitY=0;exitDx=0;exitDy=0;" parent="1" source="DnQ4--VGCIlJsh_Cb7lD-90" target="DnQ4--VGCIlJsh_Cb7lD-73" edge="1">
          <mxGeometry width="50" height="50" relative="1" as="geometry">
            <mxPoint x="1210" y="1520" as="sourcePoint" />
            <mxPoint x="1520" y="1400" as="targetPoint" />
          </mxGeometry>
        </mxCell>
        <mxCell id="DnQ4--VGCIlJsh_Cb7lD-92" value="Time" style="ellipse;whiteSpace=wrap;html=1;" parent="1" vertex="1">
          <mxGeometry x="1515" y="1630" width="120" height="80" as="geometry" />
        </mxCell>
        <mxCell id="DnQ4--VGCIlJsh_Cb7lD-93" value="" style="endArrow=none;html=1;rounded=0;entryX=0.5;entryY=1;entryDx=0;entryDy=0;exitX=0.5;exitY=0;exitDx=0;exitDy=0;" parent="1" source="DnQ4--VGCIlJsh_Cb7lD-92" target="DnQ4--VGCIlJsh_Cb7lD-73" edge="1">
          <mxGeometry width="50" height="50" relative="1" as="geometry">
            <mxPoint x="1470" y="1510" as="sourcePoint" />
            <mxPoint x="1780" y="1390" as="targetPoint" />
          </mxGeometry>
        </mxCell>
        <mxCell id="DnQ4--VGCIlJsh_Cb7lD-94" value="internal papers&amp;nbsp;" style="rounded=0;whiteSpace=wrap;html=1;" parent="1" vertex="1">
          <mxGeometry x="850" y="1330" width="120" height="60" as="geometry" />
        </mxCell>
        <mxCell id="DnQ4--VGCIlJsh_Cb7lD-95" value="&lt;span style=&quot;font-size:11.0pt;&lt;br/&gt;line-height:107%;font-family:&amp;quot;Calibri&amp;quot;,sans-serif;mso-ascii-theme-font:minor-latin;&lt;br/&gt;mso-fareast-font-family:Calibri;mso-fareast-theme-font:minor-latin;mso-hansi-theme-font:&lt;br/&gt;minor-latin;mso-bidi-font-family:&amp;quot;2  Nazanin&amp;quot;;mso-ansi-language:EN-US;&lt;br/&gt;mso-fareast-language:EN-US;mso-bidi-language:AR-SA&quot;&gt;page numbers&lt;/span&gt;" style="ellipse;whiteSpace=wrap;html=1;" parent="1" vertex="1">
          <mxGeometry x="645" y="1540" width="120" height="80" as="geometry" />
        </mxCell>
        <mxCell id="DnQ4--VGCIlJsh_Cb7lD-96" value="" style="endArrow=none;html=1;rounded=0;entryX=0.5;entryY=1;entryDx=0;entryDy=0;" parent="1" source="DnQ4--VGCIlJsh_Cb7lD-95" target="DnQ4--VGCIlJsh_Cb7lD-94" edge="1">
          <mxGeometry width="50" height="50" relative="1" as="geometry">
            <mxPoint x="650" y="1410" as="sourcePoint" />
            <mxPoint x="700" y="1360" as="targetPoint" />
          </mxGeometry>
        </mxCell>
        <mxCell id="DnQ4--VGCIlJsh_Cb7lD-97" value="Academic" style="ellipse;whiteSpace=wrap;html=1;" parent="1" vertex="1">
          <mxGeometry x="1060" y="1360" width="120" height="80" as="geometry" />
        </mxCell>
        <mxCell id="DnQ4--VGCIlJsh_Cb7lD-98" value="" style="endArrow=none;html=1;rounded=0;entryX=0.5;entryY=1;entryDx=0;entryDy=0;" parent="1" source="DnQ4--VGCIlJsh_Cb7lD-97" target="DnQ4--VGCIlJsh_Cb7lD-94" edge="1">
          <mxGeometry width="50" height="50" relative="1" as="geometry">
            <mxPoint x="790" y="1410" as="sourcePoint" />
            <mxPoint x="1050" y="1380" as="targetPoint" />
          </mxGeometry>
        </mxCell>
        <mxCell id="DnQ4--VGCIlJsh_Cb7lD-99" value="executive" style="ellipse;whiteSpace=wrap;html=1;" parent="1" vertex="1">
          <mxGeometry x="1060" y="1450" width="120" height="80" as="geometry" />
        </mxCell>
        <mxCell id="DnQ4--VGCIlJsh_Cb7lD-100" value="" style="endArrow=none;html=1;rounded=0;entryX=0.5;entryY=1;entryDx=0;entryDy=0;" parent="1" source="DnQ4--VGCIlJsh_Cb7lD-99" target="DnQ4--VGCIlJsh_Cb7lD-94" edge="1">
          <mxGeometry width="50" height="50" relative="1" as="geometry">
            <mxPoint x="670" y="1430" as="sourcePoint" />
            <mxPoint x="930" y="1400" as="targetPoint" />
            <Array as="points">
              <mxPoint x="970" y="1420" />
            </Array>
          </mxGeometry>
        </mxCell>
        <mxCell id="DnQ4--VGCIlJsh_Cb7lD-101" value="Date of admission" style="ellipse;whiteSpace=wrap;html=1;" parent="1" vertex="1">
          <mxGeometry x="645" y="1450" width="120" height="80" as="geometry" />
        </mxCell>
        <mxCell id="DnQ4--VGCIlJsh_Cb7lD-102" value="" style="endArrow=none;html=1;rounded=0;entryX=0.5;entryY=1;entryDx=0;entryDy=0;" parent="1" source="DnQ4--VGCIlJsh_Cb7lD-101" target="DnQ4--VGCIlJsh_Cb7lD-94" edge="1">
          <mxGeometry width="50" height="50" relative="1" as="geometry">
            <mxPoint x="680" y="1440" as="sourcePoint" />
            <mxPoint x="940" y="1410" as="targetPoint" />
            <Array as="points">
              <mxPoint x="840" y="1420" />
            </Array>
          </mxGeometry>
        </mxCell>
        <mxCell id="DnQ4--VGCIlJsh_Cb7lD-103" value="&lt;span style=&quot;font-size:11.0pt;&lt;br/&gt;line-height:107%;font-family:&amp;quot;Calibri&amp;quot;,sans-serif;mso-ascii-theme-font:minor-latin;&lt;br/&gt;mso-fareast-font-family:Calibri;mso-fareast-theme-font:minor-latin;mso-hansi-theme-font:&lt;br/&gt;minor-latin;mso-bidi-font-family:&amp;quot;2  Nazanin&amp;quot;;mso-ansi-language:EN-US;&lt;br/&gt;mso-fareast-language:EN-US;mso-bidi-language:AR-SA&quot;&gt;shipping time&lt;/span&gt;" style="ellipse;whiteSpace=wrap;html=1;" parent="1" vertex="1">
          <mxGeometry x="645" y="1360" width="120" height="80" as="geometry" />
        </mxCell>
        <mxCell id="DnQ4--VGCIlJsh_Cb7lD-104" value="" style="endArrow=none;html=1;rounded=0;entryX=0.5;entryY=1;entryDx=0;entryDy=0;" parent="1" source="DnQ4--VGCIlJsh_Cb7lD-103" target="DnQ4--VGCIlJsh_Cb7lD-94" edge="1">
          <mxGeometry width="50" height="50" relative="1" as="geometry">
            <mxPoint x="505" y="1410" as="sourcePoint" />
            <mxPoint x="765" y="1380" as="targetPoint" />
          </mxGeometry>
        </mxCell>
        <mxCell id="DnQ4--VGCIlJsh_Cb7lD-105" value="Reviewers" style="ellipse;whiteSpace=wrap;html=1;" parent="1" vertex="1">
          <mxGeometry x="1060" y="1540" width="120" height="80" as="geometry" />
        </mxCell>
        <mxCell id="DnQ4--VGCIlJsh_Cb7lD-106" value="" style="endArrow=none;html=1;rounded=0;entryX=0.5;entryY=1;entryDx=0;entryDy=0;" parent="1" source="DnQ4--VGCIlJsh_Cb7lD-105" target="DnQ4--VGCIlJsh_Cb7lD-94" edge="1">
          <mxGeometry width="50" height="50" relative="1" as="geometry">
            <mxPoint x="700" y="1460" as="sourcePoint" />
            <mxPoint x="910" y="1440" as="targetPoint" />
          </mxGeometry>
        </mxCell>
        <mxCell id="DnQ4--VGCIlJsh_Cb7lD-107" value="sponsors" style="ellipse;whiteSpace=wrap;html=1;" parent="1" vertex="1">
          <mxGeometry x="1060" y="1630" width="120" height="80" as="geometry" />
        </mxCell>
        <mxCell id="DnQ4--VGCIlJsh_Cb7lD-108" value="" style="endArrow=none;html=1;rounded=0;entryX=0.5;entryY=1;entryDx=0;entryDy=0;exitX=0;exitY=0;exitDx=0;exitDy=0;" parent="1" source="DnQ4--VGCIlJsh_Cb7lD-107" target="DnQ4--VGCIlJsh_Cb7lD-94" edge="1">
          <mxGeometry width="50" height="50" relative="1" as="geometry">
            <mxPoint x="1093" y="1634" as="sourcePoint" />
            <mxPoint x="970" y="1440" as="targetPoint" />
          </mxGeometry>
        </mxCell>
        <mxCell id="DnQ4--VGCIlJsh_Cb7lD-109" value="budget" style="ellipse;whiteSpace=wrap;html=1;" parent="1" vertex="1">
          <mxGeometry x="645" y="1630" width="120" height="80" as="geometry" />
        </mxCell>
        <mxCell id="DnQ4--VGCIlJsh_Cb7lD-110" value="" style="endArrow=none;html=1;rounded=0;entryX=0.5;entryY=1;entryDx=0;entryDy=0;exitX=1;exitY=0;exitDx=0;exitDy=0;" parent="1" source="DnQ4--VGCIlJsh_Cb7lD-109" target="DnQ4--VGCIlJsh_Cb7lD-94" edge="1">
          <mxGeometry width="50" height="50" relative="1" as="geometry">
            <mxPoint x="600" y="1510" as="sourcePoint" />
            <mxPoint x="860" y="1480" as="targetPoint" />
          </mxGeometry>
        </mxCell>
        <mxCell id="DnQ4--VGCIlJsh_Cb7lD-111" value="place" style="ellipse;whiteSpace=wrap;html=1;" parent="1" vertex="1">
          <mxGeometry x="785" y="1630" width="120" height="80" as="geometry" />
        </mxCell>
        <mxCell id="DnQ4--VGCIlJsh_Cb7lD-112" value="" style="endArrow=none;html=1;rounded=0;entryX=0.5;entryY=1;entryDx=0;entryDy=0;exitX=0.5;exitY=0;exitDx=0;exitDy=0;" parent="1" source="DnQ4--VGCIlJsh_Cb7lD-111" target="DnQ4--VGCIlJsh_Cb7lD-94" edge="1">
          <mxGeometry width="50" height="50" relative="1" as="geometry">
            <mxPoint x="610" y="1520" as="sourcePoint" />
            <mxPoint x="920" y="1400" as="targetPoint" />
          </mxGeometry>
        </mxCell>
        <mxCell id="DnQ4--VGCIlJsh_Cb7lD-113" value="Time" style="ellipse;whiteSpace=wrap;html=1;" parent="1" vertex="1">
          <mxGeometry x="915" y="1630" width="120" height="80" as="geometry" />
        </mxCell>
        <mxCell id="DnQ4--VGCIlJsh_Cb7lD-114" value="" style="endArrow=none;html=1;rounded=0;entryX=0.5;entryY=1;entryDx=0;entryDy=0;exitX=0.5;exitY=0;exitDx=0;exitDy=0;" parent="1" source="DnQ4--VGCIlJsh_Cb7lD-113" target="DnQ4--VGCIlJsh_Cb7lD-94" edge="1">
          <mxGeometry width="50" height="50" relative="1" as="geometry">
            <mxPoint x="870" y="1510" as="sourcePoint" />
            <mxPoint x="1180" y="1390" as="targetPoint" />
          </mxGeometry>
        </mxCell>
        <mxCell id="DnQ4--VGCIlJsh_Cb7lD-115" value="research equipmentâ€™s Informatio" style="ellipse;whiteSpace=wrap;html=1;" parent="1" vertex="1">
          <mxGeometry x="375" y="1920" width="120" height="80" as="geometry" />
        </mxCell>
        <mxCell id="DnQ4--VGCIlJsh_Cb7lD-116" value="&amp;nbsp;total wages," style="ellipse;whiteSpace=wrap;html=1;" parent="1" vertex="1">
          <mxGeometry x="55" y="1920" width="120" height="80" as="geometry" />
        </mxCell>
        <mxCell id="DnQ4--VGCIlJsh_Cb7lD-117" value="Case payments" style="ellipse;whiteSpace=wrap;html=1;" parent="1" vertex="1">
          <mxGeometry x="225" y="1920" width="120" height="80" as="geometry" />
        </mxCell>
        <mxCell id="DnQ4--VGCIlJsh_Cb7lD-118" value="" style="endArrow=none;html=1;rounded=0;entryX=0.5;entryY=1;entryDx=0;entryDy=0;exitX=0.5;exitY=0;exitDx=0;exitDy=0;" parent="1" source="DnQ4--VGCIlJsh_Cb7lD-115" target="DnQ4--VGCIlJsh_Cb7lD-6" edge="1">
          <mxGeometry width="50" height="50" relative="1" as="geometry">
            <mxPoint x="335" y="1910" as="sourcePoint" />
            <mxPoint x="285" y="1860" as="targetPoint" />
          </mxGeometry>
        </mxCell>
        <mxCell id="DnQ4--VGCIlJsh_Cb7lD-119" value="" style="endArrow=none;html=1;rounded=0;entryX=0.5;entryY=1;entryDx=0;entryDy=0;exitX=0.5;exitY=0;exitDx=0;exitDy=0;" parent="1" source="DnQ4--VGCIlJsh_Cb7lD-117" target="DnQ4--VGCIlJsh_Cb7lD-6" edge="1">
          <mxGeometry width="50" height="50" relative="1" as="geometry">
            <mxPoint x="445" y="1930" as="sourcePoint" />
            <mxPoint x="300" y="1870" as="targetPoint" />
          </mxGeometry>
        </mxCell>
        <mxCell id="DnQ4--VGCIlJsh_Cb7lD-120" value="" style="endArrow=none;html=1;rounded=0;entryX=0.5;entryY=1;entryDx=0;entryDy=0;exitX=0.5;exitY=0;exitDx=0;exitDy=0;" parent="1" source="DnQ4--VGCIlJsh_Cb7lD-116" target="DnQ4--VGCIlJsh_Cb7lD-6" edge="1">
          <mxGeometry width="50" height="50" relative="1" as="geometry">
            <mxPoint x="455" y="1940" as="sourcePoint" />
            <mxPoint x="310" y="1880" as="targetPoint" />
          </mxGeometry>
        </mxCell>
        <mxCell id="4cyTBoL2mbChuSqTaiiy-8" value="researcher" style="rounded=0;whiteSpace=wrap;html=1;" parent="1" vertex="1">
          <mxGeometry x="450" y="920" width="120" height="60" as="geometry" />
        </mxCell>
        <mxCell id="4cyTBoL2mbChuSqTaiiy-9" value="FName" style="ellipse;whiteSpace=wrap;html=1;" parent="1" vertex="1">
          <mxGeometry x="290" y="1010" width="100" height="60" as="geometry" />
        </mxCell>
        <mxCell id="4cyTBoL2mbChuSqTaiiy-11" value="LName" style="ellipse;whiteSpace=wrap;html=1;" parent="1" vertex="1">
          <mxGeometry x="415" y="1040" width="100" height="60" as="geometry" />
        </mxCell>
        <mxCell id="4cyTBoL2mbChuSqTaiiy-24" value="" style="endArrow=none;html=1;rounded=0;" parent="1" source="4cyTBoL2mbChuSqTaiiy-9" target="4cyTBoL2mbChuSqTaiiy-8" edge="1">
          <mxGeometry width="50" height="50" relative="1" as="geometry">
            <mxPoint x="350" y="1040" as="sourcePoint" />
            <mxPoint x="520" y="910" as="targetPoint" />
          </mxGeometry>
        </mxCell>
        <mxCell id="4cyTBoL2mbChuSqTaiiy-25" value="" style="endArrow=none;html=1;rounded=0;" parent="1" source="4cyTBoL2mbChuSqTaiiy-11" target="4cyTBoL2mbChuSqTaiiy-8" edge="1">
          <mxGeometry width="50" height="50" relative="1" as="geometry">
            <mxPoint x="580" y="1060" as="sourcePoint" />
            <mxPoint x="630" y="1010" as="targetPoint" />
          </mxGeometry>
        </mxCell>
        <mxCell id="4cyTBoL2mbChuSqTaiiy-26" value="&lt;div&gt;Reseacher_ID&lt;/div&gt;" style="ellipse;whiteSpace=wrap;html=1;fontStyle=4" parent="1" vertex="1">
          <mxGeometry x="265" y="930" width="95" height="60" as="geometry" />
        </mxCell>
        <mxCell id="4cyTBoL2mbChuSqTaiiy-27" value="" style="endArrow=none;html=1;rounded=0;" parent="1" source="4cyTBoL2mbChuSqTaiiy-26" target="4cyTBoL2mbChuSqTaiiy-8" edge="1">
          <mxGeometry width="50" height="50" relative="1" as="geometry">
            <mxPoint x="360" y="950" as="sourcePoint" />
            <mxPoint x="410" y="900" as="targetPoint" />
          </mxGeometry>
        </mxCell>
        <mxCell id="4cyTBoL2mbChuSqTaiiy-28" value="" style="ellipse;whiteSpace=wrap;html=1;" parent="1" vertex="1">
          <mxGeometry x="570" y="1040" width="100" height="60" as="geometry" />
        </mxCell>
        <mxCell id="cqat6_V7KJYR1HcZDutZ-6" value="" style="group;fontStyle=4" vertex="1" connectable="0" parent="1">
          <mxGeometry x="20" y="180" width="930" height="590" as="geometry" />
        </mxCell>
        <mxCell id="DnQ4--VGCIlJsh_Cb7lD-1" value="conference papers" style="rounded=0;whiteSpace=wrap;html=1;" parent="cqat6_V7KJYR1HcZDutZ-6" vertex="1">
          <mxGeometry x="-30" y="460" width="120" height="60" as="geometry" />
        </mxCell>
        <mxCell id="DnQ4--VGCIlJsh_Cb7lD-18" value="" style="endArrow=none;html=1;rounded=0;exitX=0.5;exitY=0;exitDx=0;exitDy=0;" parent="cqat6_V7KJYR1HcZDutZ-6" source="DnQ4--VGCIlJsh_Cb7lD-1" target="4cyTBoL2mbChuSqTaiiy-3" edge="1">
          <mxGeometry width="50" height="50" relative="1" as="geometry">
            <mxPoint x="270" y="475" as="sourcePoint" />
            <mxPoint x="345" y="415" as="targetPoint" />
            <Array as="points" />
          </mxGeometry>
        </mxCell>
        <mxCell id="m6qgLcc2T48I289HVZYg-10" style="edgeStyle=none;shape=connector;rounded=0;orthogonalLoop=1;jettySize=auto;html=1;labelBackgroundColor=default;strokeColor=default;fontFamily=Helvetica;fontSize=11;fontColor=default;endArrow=none;" edge="1" parent="cqat6_V7KJYR1HcZDutZ-6" source="DnQ4--VGCIlJsh_Cb7lD-41" target="m6qgLcc2T48I289HVZYg-8">
          <mxGeometry relative="1" as="geometry" />
        </mxCell>
        <mxCell id="DnQ4--VGCIlJsh_Cb7lD-41" value="Research activity" style="rounded=0;whiteSpace=wrap;html=1;" parent="cqat6_V7KJYR1HcZDutZ-6" vertex="1">
          <mxGeometry x="265" y="230" width="160" height="80" as="geometry" />
        </mxCell>
        <mxCell id="DnQ4--VGCIlJsh_Cb7lD-44" value="Information related&lt;br/&gt;to the specialized field" style="ellipse;whiteSpace=wrap;html=1;" parent="cqat6_V7KJYR1HcZDutZ-6" vertex="1">
          <mxGeometry y="150" width="135" height="80" as="geometry" />
        </mxCell>
        <mxCell id="DnQ4--VGCIlJsh_Cb7lD-45" value="" style="endArrow=none;html=1;rounded=0;" parent="cqat6_V7KJYR1HcZDutZ-6" source="DnQ4--VGCIlJsh_Cb7lD-41" target="DnQ4--VGCIlJsh_Cb7lD-44" edge="1">
          <mxGeometry width="50" height="50" relative="1" as="geometry">
            <mxPoint x="315" y="350" as="sourcePoint" />
            <mxPoint x="365" y="300" as="targetPoint" />
          </mxGeometry>
        </mxCell>
        <mxCell id="DnQ4--VGCIlJsh_Cb7lD-47" value="" style="endArrow=none;html=1;rounded=0;" parent="cqat6_V7KJYR1HcZDutZ-6" source="DnQ4--VGCIlJsh_Cb7lD-41" target="m6qgLcc2T48I289HVZYg-3" edge="1">
          <mxGeometry width="50" height="50" relative="1" as="geometry">
            <mxPoint x="380" y="210" as="sourcePoint" />
            <mxPoint x="450" y="90" as="targetPoint" />
          </mxGeometry>
        </mxCell>
        <mxCell id="m6qgLcc2T48I289HVZYg-5" value="m" style="edgeLabel;html=1;align=center;verticalAlign=middle;resizable=0;points=[];fontSize=11;fontFamily=Helvetica;fontColor=default;" vertex="1" connectable="0" parent="DnQ4--VGCIlJsh_Cb7lD-47">
          <mxGeometry x="-0.4022" y="-5" relative="1" as="geometry">
            <mxPoint x="-3" y="-17" as="offset" />
          </mxGeometry>
        </mxCell>
        <mxCell id="DnQ4--VGCIlJsh_Cb7lD-48" value="execution level (Domestic&lt;br/&gt;or international)&amp;nbsp;" style="ellipse;whiteSpace=wrap;html=1;" parent="cqat6_V7KJYR1HcZDutZ-6" vertex="1">
          <mxGeometry x="263.75" y="15" width="120" height="80" as="geometry" />
        </mxCell>
        <mxCell id="DnQ4--VGCIlJsh_Cb7lD-49" value="" style="endArrow=none;html=1;rounded=0;" parent="cqat6_V7KJYR1HcZDutZ-6" source="DnQ4--VGCIlJsh_Cb7lD-41" target="DnQ4--VGCIlJsh_Cb7lD-48" edge="1">
          <mxGeometry width="50" height="50" relative="1" as="geometry">
            <mxPoint x="365" y="250" as="sourcePoint" />
            <mxPoint x="385" y="320" as="targetPoint" />
          </mxGeometry>
        </mxCell>
        <mxCell id="DnQ4--VGCIlJsh_Cb7lD-52" value="&lt;pre style=&quot;text-align:right;line-height:27.0pt&quot;&gt;Start and end time&lt;i style=&quot;background-color: initial; font-family: Helvetica; text-align: center; white-space: normal;&quot;&gt;&lt;span style=&quot;font-size:9.0pt;font-family:&amp;quot;Times New Roman&amp;quot;,serif;mso-fareast-font-family:&lt;br/&gt;&amp;quot;Times New Roman&amp;quot;;color:#202124&quot;&gt;&amp;nbsp;&lt;/span&gt;&lt;/i&gt;&lt;/pre&gt;" style="ellipse;whiteSpace=wrap;html=1;" parent="cqat6_V7KJYR1HcZDutZ-6" vertex="1">
          <mxGeometry x="15" y="40" width="155" height="80" as="geometry" />
        </mxCell>
        <mxCell id="DnQ4--VGCIlJsh_Cb7lD-53" value="" style="endArrow=none;html=1;rounded=0;" parent="cqat6_V7KJYR1HcZDutZ-6" source="DnQ4--VGCIlJsh_Cb7lD-41" target="DnQ4--VGCIlJsh_Cb7lD-52" edge="1">
          <mxGeometry width="50" height="50" relative="1" as="geometry">
            <mxPoint x="525" y="232.5" as="sourcePoint" />
            <mxPoint x="545" y="302.5" as="targetPoint" />
          </mxGeometry>
        </mxCell>
        <mxCell id="DnQ4--VGCIlJsh_Cb7lD-54" value="" style="endArrow=none;html=1;rounded=0;" parent="cqat6_V7KJYR1HcZDutZ-6" target="DnQ4--VGCIlJsh_Cb7lD-55" edge="1" source="DnQ4--VGCIlJsh_Cb7lD-41">
          <mxGeometry width="50" height="50" relative="1" as="geometry">
            <mxPoint x="345" y="230" as="sourcePoint" />
            <mxPoint x="575" y="150" as="targetPoint" />
          </mxGeometry>
        </mxCell>
        <mxCell id="DnQ4--VGCIlJsh_Cb7lD-55" value="&amp;nbsp;executive officesâ€™s information" style="ellipse;whiteSpace=wrap;html=1;" parent="cqat6_V7KJYR1HcZDutZ-6" vertex="1">
          <mxGeometry x="495" y="110" width="120" height="80" as="geometry" />
        </mxCell>
        <mxCell id="4cyTBoL2mbChuSqTaiiy-3" value="Is A" style="triangle;rotation=-90;align=center;whiteSpace=wrap;html=1;portConstraintRotation=0;" parent="cqat6_V7KJYR1HcZDutZ-6" vertex="1">
          <mxGeometry x="306.25" y="323.75" width="77.5" height="90" as="geometry" />
        </mxCell>
        <mxCell id="DnQ4--VGCIlJsh_Cb7lD-17" value="" style="endArrow=none;html=1;rounded=0;exitX=1;exitY=0.5;exitDx=0;exitDy=0;entryX=0.5;entryY=1;entryDx=0;entryDy=0;" parent="cqat6_V7KJYR1HcZDutZ-6" source="4cyTBoL2mbChuSqTaiiy-3" target="DnQ4--VGCIlJsh_Cb7lD-41" edge="1">
          <mxGeometry width="50" height="50" relative="1" as="geometry">
            <mxPoint x="260" y="465" as="sourcePoint" />
            <mxPoint x="350" y="390" as="targetPoint" />
          </mxGeometry>
        </mxCell>
        <mxCell id="DnQ4--VGCIlJsh_Cb7lD-3" value="&lt;p style=&quot;border-color: var(--border-color);&quot; class=&quot;MsoNormal&quot;&gt;internal papers&lt;span style=&quot;background-color: initial;&quot;&gt;&amp;nbsp;&lt;/span&gt;&lt;/p&gt;" style="rounded=0;whiteSpace=wrap;html=1;align=center;" parent="cqat6_V7KJYR1HcZDutZ-6" vertex="1">
          <mxGeometry x="37.5" y="530" width="110" height="60" as="geometry" />
        </mxCell>
        <mxCell id="DnQ4--VGCIlJsh_Cb7lD-16" value="" style="endArrow=none;html=1;rounded=0;exitX=0.5;exitY=0;exitDx=0;exitDy=0;" parent="cqat6_V7KJYR1HcZDutZ-6" source="DnQ4--VGCIlJsh_Cb7lD-3" target="4cyTBoL2mbChuSqTaiiy-3" edge="1">
          <mxGeometry width="50" height="50" relative="1" as="geometry">
            <mxPoint x="260" y="695" as="sourcePoint" />
            <mxPoint x="345" y="415" as="targetPoint" />
          </mxGeometry>
        </mxCell>
        <mxCell id="DnQ4--VGCIlJsh_Cb7lD-4" value="&amp;nbsp;workshops" style="rounded=0;whiteSpace=wrap;html=1;" parent="cqat6_V7KJYR1HcZDutZ-6" vertex="1">
          <mxGeometry x="180" y="530" width="120" height="60" as="geometry" />
        </mxCell>
        <mxCell id="4cyTBoL2mbChuSqTaiiy-4" value="" style="endArrow=none;html=1;rounded=0;exitX=0.5;exitY=0;exitDx=0;exitDy=0;" parent="cqat6_V7KJYR1HcZDutZ-6" source="DnQ4--VGCIlJsh_Cb7lD-4" target="4cyTBoL2mbChuSqTaiiy-3" edge="1">
          <mxGeometry width="50" height="50" relative="1" as="geometry">
            <mxPoint x="460" y="445" as="sourcePoint" />
            <mxPoint x="355" y="300" as="targetPoint" />
          </mxGeometry>
        </mxCell>
        <mxCell id="DnQ4--VGCIlJsh_Cb7lD-2" value="assisting in&amp;nbsp;" style="rounded=0;whiteSpace=wrap;html=1;" parent="cqat6_V7KJYR1HcZDutZ-6" vertex="1">
          <mxGeometry x="340" y="520" width="120" height="60" as="geometry" />
        </mxCell>
        <mxCell id="DnQ4--VGCIlJsh_Cb7lD-19" value="" style="endArrow=none;html=1;rounded=0;entryX=0.5;entryY=0;entryDx=0;entryDy=0;" parent="cqat6_V7KJYR1HcZDutZ-6" source="4cyTBoL2mbChuSqTaiiy-3" target="DnQ4--VGCIlJsh_Cb7lD-2" edge="1">
          <mxGeometry width="50" height="50" relative="1" as="geometry">
            <mxPoint x="390" y="330" as="sourcePoint" />
            <mxPoint x="385" y="435" as="targetPoint" />
            <Array as="points" />
          </mxGeometry>
        </mxCell>
        <mxCell id="cqat6_V7KJYR1HcZDutZ-1" value="" style="group" vertex="1" connectable="0" parent="cqat6_V7KJYR1HcZDutZ-6">
          <mxGeometry x="440" y="360" width="490" height="160" as="geometry" />
        </mxCell>
        <mxCell id="4cyTBoL2mbChuSqTaiiy-13" value="Fund" style="rounded=0;whiteSpace=wrap;html=1;" parent="cqat6_V7KJYR1HcZDutZ-1" vertex="1">
          <mxGeometry x="210" width="80" height="50" as="geometry" />
        </mxCell>
        <mxCell id="4cyTBoL2mbChuSqTaiiy-14" value="&lt;div&gt;companies&lt;/div&gt;" style="ellipse;whiteSpace=wrap;html=1;" parent="cqat6_V7KJYR1HcZDutZ-1" vertex="1">
          <mxGeometry x="425" y="20" width="90" height="55" as="geometry" />
        </mxCell>
        <mxCell id="4cyTBoL2mbChuSqTaiiy-17" value="&lt;div&gt;Donation Value&lt;/div&gt;" style="ellipse;whiteSpace=wrap;html=1;" parent="cqat6_V7KJYR1HcZDutZ-1" vertex="1">
          <mxGeometry x="400" y="90" width="115" height="60" as="geometry" />
        </mxCell>
        <mxCell id="4cyTBoL2mbChuSqTaiiy-22" value="" style="endArrow=none;html=1;rounded=0;" parent="cqat6_V7KJYR1HcZDutZ-1" source="4cyTBoL2mbChuSqTaiiy-17" target="4cyTBoL2mbChuSqTaiiy-13" edge="1">
          <mxGeometry width="50" height="50" relative="1" as="geometry">
            <mxPoint x="290" y="100" as="sourcePoint" />
            <mxPoint x="340" y="50" as="targetPoint" />
          </mxGeometry>
        </mxCell>
        <mxCell id="4cyTBoL2mbChuSqTaiiy-23" value="" style="endArrow=none;html=1;rounded=0;" parent="cqat6_V7KJYR1HcZDutZ-1" source="4cyTBoL2mbChuSqTaiiy-13" target="4cyTBoL2mbChuSqTaiiy-14" edge="1">
          <mxGeometry width="50" height="50" relative="1" as="geometry">
            <mxPoint x="400" y="40" as="sourcePoint" />
            <mxPoint x="450" y="-10" as="targetPoint" />
          </mxGeometry>
        </mxCell>
        <mxCell id="4cyTBoL2mbChuSqTaiiy-15" value="Fund_ID" style="ellipse;whiteSpace=wrap;html=1;fontStyle=4" parent="cqat6_V7KJYR1HcZDutZ-6" vertex="1">
          <mxGeometry x="685" y="530" width="90" height="60" as="geometry" />
        </mxCell>
        <mxCell id="4cyTBoL2mbChuSqTaiiy-20" value="" style="endArrow=none;html=1;rounded=0;" parent="cqat6_V7KJYR1HcZDutZ-6" source="4cyTBoL2mbChuSqTaiiy-15" target="4cyTBoL2mbChuSqTaiiy-13" edge="1">
          <mxGeometry width="50" height="50" relative="1" as="geometry">
            <mxPoint x="595" y="490" as="sourcePoint" />
            <mxPoint x="645" y="440" as="targetPoint" />
          </mxGeometry>
        </mxCell>
        <mxCell id="4cyTBoL2mbChuSqTaiiy-16" value="Loan Value" style="ellipse;whiteSpace=wrap;html=1;" parent="cqat6_V7KJYR1HcZDutZ-6" vertex="1">
          <mxGeometry x="790" y="520" width="90" height="60" as="geometry" />
        </mxCell>
        <mxCell id="4cyTBoL2mbChuSqTaiiy-21" value="" style="endArrow=none;html=1;rounded=0;" parent="cqat6_V7KJYR1HcZDutZ-6" source="4cyTBoL2mbChuSqTaiiy-16" target="4cyTBoL2mbChuSqTaiiy-13" edge="1">
          <mxGeometry width="50" height="50" relative="1" as="geometry">
            <mxPoint x="610" y="460" as="sourcePoint" />
            <mxPoint x="660" y="410" as="targetPoint" />
          </mxGeometry>
        </mxCell>
        <mxCell id="cqat6_V7KJYR1HcZDutZ-7" value="&lt;div&gt;Funding&lt;/div&gt;" style="rhombus;whiteSpace=wrap;html=1;" vertex="1" parent="cqat6_V7KJYR1HcZDutZ-6">
          <mxGeometry x="480" y="310" width="90" height="80" as="geometry" />
        </mxCell>
        <mxCell id="cqat6_V7KJYR1HcZDutZ-8" value="" style="endArrow=none;html=1;rounded=0;" edge="1" parent="cqat6_V7KJYR1HcZDutZ-6" source="cqat6_V7KJYR1HcZDutZ-7" target="DnQ4--VGCIlJsh_Cb7lD-41">
          <mxGeometry width="50" height="50" relative="1" as="geometry">
            <mxPoint x="460" y="330" as="sourcePoint" />
            <mxPoint x="510" y="280" as="targetPoint" />
          </mxGeometry>
        </mxCell>
        <mxCell id="cqat6_V7KJYR1HcZDutZ-9" value="" style="endArrow=none;html=1;rounded=0;" edge="1" parent="cqat6_V7KJYR1HcZDutZ-6" source="cqat6_V7KJYR1HcZDutZ-7" target="4cyTBoL2mbChuSqTaiiy-13">
          <mxGeometry width="50" height="50" relative="1" as="geometry">
            <mxPoint x="530" y="400" as="sourcePoint" />
            <mxPoint x="580" y="350" as="targetPoint" />
          </mxGeometry>
        </mxCell>
        <mxCell id="m6qgLcc2T48I289HVZYg-3" value="sponsors" style="rhombus;whiteSpace=wrap;html=1;fontFamily=Helvetica;fontSize=11;fontColor=default;" vertex="1" parent="cqat6_V7KJYR1HcZDutZ-6">
          <mxGeometry x="440" y="15" width="80" height="80" as="geometry" />
        </mxCell>
        <mxCell id="m6qgLcc2T48I289HVZYg-9" style="edgeStyle=none;shape=connector;rounded=0;orthogonalLoop=1;jettySize=auto;html=1;labelBackgroundColor=default;strokeColor=default;fontFamily=Helvetica;fontSize=11;fontColor=default;endArrow=none;" edge="1" parent="cqat6_V7KJYR1HcZDutZ-6" source="m6qgLcc2T48I289HVZYg-7" target="m6qgLcc2T48I289HVZYg-8">
          <mxGeometry relative="1" as="geometry" />
        </mxCell>
        <mxCell id="m6qgLcc2T48I289HVZYg-7" value="Executive Office" style="rounded=0;whiteSpace=wrap;html=1;fontFamily=Helvetica;fontSize=11;fontColor=default;" vertex="1" parent="cqat6_V7KJYR1HcZDutZ-6">
          <mxGeometry x="740" y="240" width="120" height="60" as="geometry" />
        </mxCell>
        <mxCell id="m6qgLcc2T48I289HVZYg-8" value="&lt;div&gt;Is Executed in&lt;/div&gt;" style="rhombus;whiteSpace=wrap;html=1;fontFamily=Helvetica;fontSize=11;fontColor=default;" vertex="1" parent="cqat6_V7KJYR1HcZDutZ-6">
          <mxGeometry x="570" y="230" width="90" height="80" as="geometry" />
        </mxCell>
        <mxCell id="cqat6_V7KJYR1HcZDutZ-10" value="Is A" style="triangle;whiteSpace=wrap;rotation=-90;" vertex="1" parent="1">
          <mxGeometry x="1187.5" y="117.5" width="75" height="80" as="geometry" />
        </mxCell>
        <mxCell id="cqat6_V7KJYR1HcZDutZ-11" value="" style="endArrow=none;html=1;rounded=0;" edge="1" parent="1" source="cqat6_V7KJYR1HcZDutZ-10" target="DnQ4--VGCIlJsh_Cb7lD-5">
          <mxGeometry width="50" height="50" relative="1" as="geometry">
            <mxPoint x="1120" y="190" as="sourcePoint" />
            <mxPoint x="1170" y="140" as="targetPoint" />
          </mxGeometry>
        </mxCell>
        <mxCell id="m6qgLcc2T48I289HVZYg-2" value="Sponsor" style="rounded=0;whiteSpace=wrap;html=1;fontFamily=Helvetica;fontSize=11;fontColor=default;" vertex="1" parent="1">
          <mxGeometry x="690" y="137.5" width="120" height="60" as="geometry" />
        </mxCell>
        <mxCell id="m6qgLcc2T48I289HVZYg-4" style="edgeStyle=none;shape=connector;rounded=0;orthogonalLoop=1;jettySize=auto;html=1;labelBackgroundColor=default;strokeColor=default;fontFamily=Helvetica;fontSize=11;fontColor=default;endArrow=none;" edge="1" parent="1" source="m6qgLcc2T48I289HVZYg-3" target="m6qgLcc2T48I289HVZYg-2">
          <mxGeometry relative="1" as="geometry" />
        </mxCell>
        <mxCell id="m6qgLcc2T48I289HVZYg-6" value="n" style="edgeLabel;html=1;align=center;verticalAlign=middle;resizable=0;points=[];fontSize=11;fontFamily=Helvetica;fontColor=default;" vertex="1" connectable="0" parent="m6qgLcc2T48I289HVZYg-4">
          <mxGeometry x="0.2632" y="-1" relative="1" as="geometry">
            <mxPoint y="-11" as="offset" />
          </mxGeometry>
        </mxCell>
      </root>
    </mxGraphModel>
  </diagram>
  <diagram name="Page-2" id="7QqCUOm8C3iG96nndXc_">
    <mxGraphModel dx="1219" dy="769" grid="1" gridSize="10" guides="1" tooltips="1" connect="1" arrows="1" fold="1" page="1" pageScale="1" pageWidth="850" pageHeight="1100" math="0" shadow="0">
      <root>
        <mxCell id="0" />
        <mxCell id="1" parent="0" />
        <mxCell id="AIV9mb6m1nxjzcw5Kp6W-3" style="edgeStyle=none;shape=connector;rounded=0;orthogonalLoop=1;jettySize=auto;html=1;exitX=0.5;exitY=1;exitDx=0;exitDy=0;entryX=0.5;entryY=0;entryDx=0;entryDy=0;labelBackgroundColor=default;strokeColor=default;fontFamily=Helvetica;fontSize=11;fontColor=default;endArrow=none;" edge="1" parent="1" source="AIV9mb6m1nxjzcw5Kp6W-1" target="AIV9mb6m1nxjzcw5Kp6W-2">
          <mxGeometry relative="1" as="geometry" />
        </mxCell>
        <mxCell id="AIV9mb6m1nxjzcw5Kp6W-1" value="&lt;div&gt;R act&lt;/div&gt;" style="rounded=0;whiteSpace=wrap;html=1;fontFamily=Helvetica;fontSize=11;fontColor=default;" vertex="1" parent="1">
          <mxGeometry x="190" y="180" width="120" height="60" as="geometry" />
        </mxCell>
        <mxCell id="AIV9mb6m1nxjzcw5Kp6W-6" style="edgeStyle=none;shape=connector;rounded=0;orthogonalLoop=1;jettySize=auto;html=1;exitX=1;exitY=0.5;exitDx=0;exitDy=0;entryX=0;entryY=0.5;entryDx=0;entryDy=0;labelBackgroundColor=default;strokeColor=default;fontFamily=Helvetica;fontSize=11;fontColor=default;endArrow=none;" edge="1" parent="1" source="AIV9mb6m1nxjzcw5Kp6W-2" target="AIV9mb6m1nxjzcw5Kp6W-5">
          <mxGeometry relative="1" as="geometry" />
        </mxCell>
        <mxCell id="AIV9mb6m1nxjzcw5Kp6W-2" value="&lt;div&gt;reseacher&lt;/div&gt;&lt;div&gt;&lt;br&gt;&lt;/div&gt;" style="rounded=0;whiteSpace=wrap;html=1;fontFamily=Helvetica;fontSize=11;fontColor=default;" vertex="1" parent="1">
          <mxGeometry x="190" y="380" width="120" height="60" as="geometry" />
        </mxCell>
        <mxCell id="AIV9mb6m1nxjzcw5Kp6W-4" value="" style="rhombus;whiteSpace=wrap;html=1;fontFamily=Helvetica;fontSize=11;fontColor=default;" vertex="1" parent="1">
          <mxGeometry x="210" y="260" width="80" height="80" as="geometry" />
        </mxCell>
        <mxCell id="AIV9mb6m1nxjzcw5Kp6W-5" value="&lt;div&gt;institute&lt;/div&gt;&lt;div&gt;&lt;br&gt;&lt;/div&gt;" style="rounded=0;whiteSpace=wrap;html=1;fontFamily=Helvetica;fontSize=11;fontColor=default;" vertex="1" parent="1">
          <mxGeometry x="570" y="290" width="120" height="60" as="geometry" />
        </mxCell>
        <mxCell id="AIV9mb6m1nxjzcw5Kp6W-7" value="" style="rhombus;whiteSpace=wrap;html=1;fontFamily=Helvetica;fontSize=11;fontColor=default;" vertex="1" parent="1">
          <mxGeometry x="400" y="330" width="80" height="80" as="geometry" />
        </mxCell>
      </root>
    </mxGraphModel>
  </diagram>
</mxfile>
